<?xml version="1.0" standalone="no"?>
<!DOCTYPE svg PUBLIC "-//W3C//DTD SVG 1.1//EN" "http://www.w3.org/Graphics/SVG/1.1/DTD/svg11.dtd" >
<svg xmlns="http://www.w3.org/2000/svg">
<metadata>Generated by IcoMoon</metadata>
<defs>
<font id="icomoon" horiz-adv-x="1024">
<font-face units-per-em="1024" ascent="960" descent="-64" />
<missing-glyph horiz-adv-x="1024" />
<glyph unicode="&#x20;" horiz-adv-x="512" d="" />
<glyph unicode="&#x21;" glyph-name="exclam" d="M1024 369.5l-512 397.5-512-397.5v162l512 397.5 512-397.5v-162zM896 384v-384h-768v384l384 288z" />
<glyph unicode="&#x22;" glyph-name="quotedbl" d="M1024 369.5l-512 397.5-512-397.5v162l512 397.5 512-397.5v-162zM896 384v-384h-256v256h-256v-256h-256v384l384 288z" />
<glyph unicode="&#x23;" glyph-name="numbersign" d="M1024 352l-192 192v288h-128v-160l-192 192-512-512v-32h128v-320h320v192h128v-192h320v320h128v32z" />
<glyph unicode="&#x24;" glyph-name="dollar" d="M512 896l-512-512h128l384 384 384-384h128zM192 320v-320h256v256h128v-256h256v320l-320 320z" />
<glyph unicode="&#x25;" glyph-name="percent" d="M512 832l-512-448h128v-320h256v192h256v-192h256v320h128zM480 384h-96v96h96v-96zM480 544h-96v96h96v-96zM640 384h-96v96h96v-96zM640 544h-96v96h96v-96z" />
<glyph unicode="&#x26;" glyph-name="ampersand" d="M896 384v-384h-768v384h128v-256h512v256h128zM1024 369.5l-512 397.5-512-397.5v162l512 397.5 512-397.5v-162z" />
<glyph unicode="&#x27;" glyph-name="quotesingle" d="M0-64h64l192 320h192q39 0 78 27.5t74.5 75.5 71.5 107.5 75.75 128.25 80.25 133 92 127 104 105.25q-116 0-226.25-37t-199.75-98.5-172-147-146-176.75-119-194.25-93.5-192.5-67.5-178zM392 384h-72q3.5 6.5 10.5 18.5t30.75 47.75 49.75 70.25 66.75 81 83 86 97 79 110.25 65.5q-10-9-27-24.75t-66.25-65.5-93.75-100-98.25-121.5-90.75-136.25z" />
<glyph unicode="&#x28;" glyph-name="parenleft" d="M384 373.5q4.5 2.5 12 6.75t31 16 46.75 21.75 55.25 20.5 60.75 15.75 59.25 4.25 54-11q31 47 70 115-50 12-115.25 12.75t-105.75-4.25l-40-5.5q2.5 1.5 6.75 4t18.25 10 28.5 14.25 35.75 15.75 41.5 16.25 44.25 13.25 45.75 9 44.5 2 41.25-6.5q8.5 15.5 32 58.25t36 64.25q-48 2.5-88.5 0.75t-67-5.75l-27-3.5q5 3 13.5 7.75t35 17.75 52.25 23.5 60.75 20.75 65 13.75q57 92 93.5 119-116 0-226.25-37t-199.75-98.5-172-147-146-176.75-119-194.25-93.5-192.5-67.5-178h64l192 320q2.5-2.5 8-6.5t27-11.5 48-10 72.75 3.75 100.25 24.25q61.5 20.5 135.5 114-50 12.5-115.75 13.5t-106.75-4.5z" />
<glyph unicode="&#x29;" glyph-name="parenright" d="M928 576l-288 288 96 96 288-288zM608 768l224-224-128-352-576-256-41.5 41.5 345 344.5q7.5-2 16.5-2 26.5 0 45.25 18.75t18.75 45.25-18.75 45.25-45.25 18.75-45.25-18.75-18.75-45.25q0-9 2-16.5l-344.5-345-41.5 41.5 256 576z" />
<glyph unicode="&#x2a;" glyph-name="asterisk" d="M960 672l-224 224 64 64 224-224zM896 608l-32-352q-59 0-129.5-17.75t-136.25-45.75-131.75-62.25-120.25-68.5-96.75-62.25-66-45.5l-23.5-18-53 53 273.5 274q17-7 35.5-7 40 0 68 28t28 68-28 68-68 28-68-28-28-68q0-18.5 7-35.5l-274-273.5-53 53q6.5 8.5 18 24.25t44.75 64.5 63.5 98 67.25 118.75 63.5 133.25 44.75 135 18.25 130.25l352 32z" />
<glyph unicode="&#x2b;" glyph-name="plus" d="M640 832l32 128h-384l32-128h320zM640 768h-320l-160-320 256-512h32v448q-26 0-45 19t-19 45v64q0 26 19 45t45 19h64q26 0 45-19t19-45v-64q0-26-19-45t-45-19v-448h32l256 512z" />
<glyph unicode="&#x2c;" glyph-name="comma" d="M652 803.5l52 156.5h-448l52-156.5-148-355.5 256-512h128l256 512zM615 896l-21-64h-228l-21 64h270zM512 15v374.5q28.5 10 46.25 34.75t17.75 55.75q0 40-28 68t-68 28-68-28-28-68q0-31 17.75-55.75t46.25-34.75v-374.5l-217.5 435.5 132 317.5h235l132-317.5z" />
<glyph unicode="&#x2d;" glyph-name="hyphen" d="M512 784q-50-52-91.5-103-160-199.5-164.5-352v-14q2.5-105 76.5-177.5 74.5-73.5 179.5-73.5t179.5 73.5q74 72.5 76.5 177.5v0 14q-4.5 152.5-164.5 352-41.5 51-91.5 103zM512 960q8-6.5 21.5-18.5t52.5-50.5 74.5-78.75 79.5-99.75 76-117.5 55-127.75 25-134.25v-20.5q-1.5-77-32.5-146.75t-82.25-120-121.75-80-147.5-29.75-147.5 29.75-121.75 80-82.25 120-32.5 146.75v20.5q2 64.5 24.25 133.75t56.25 128.75 74.75 116.5 81 101 73.25 77.75 53.5 51.25z" />
<glyph unicode="&#x2e;" glyph-name="period" d="M832 768v64q0 26-19 45t-45 19h-704q-26 0-45-19t-19-45v-192q0-26 19-45t45-19h704q26 0 45 19t19 45v64h128v-256h-576v-128h-32q-13 0-22.5-9.5t-9.5-22.5v-320q0-13 9.5-22.5t22.5-9.5h128q13 0 22.5 9.5t9.5 22.5v320q0 13-9.5 22.5t-22.5 9.5h-32v64h576v384h-192zM70 768h-6v64h6v-64zM102 768h-16v64h16v-64zM134 768h-16v64h16v-64zM166 768h-16v64h16v-64zM198 768h-16v64h16v-64zM230 768h-16v64h16v-64zM262 768h-16v64h16v-64zM294 768h-16v64h16v-64zM326 768h-16v64h16v-64zM358 768h-16v64h16v-64zM390 768h-16v64h16v-64zM422 768h-16v64h16v-64zM454 768h-16v64h16v-64zM486 768h-16v64h16v-64zM518 768h-16v64h16v-64zM550 768h-16v64h16v-64zM582 768h-16v64h16v-64zM614 768h-16v64h16v-64zM646 768h-16v64h16v-64zM678 768h-16v64h16v-64zM710 768h-16v64h16v-64zM742 768h-16v64h16v-64zM768 768h-10v64h10v-64z" />
<glyph unicode="&#x2f;" glyph-name="slash" d="M1024 384v384h-192v64q0 26-19 45t-45 19h-704q-26 0-45-19t-19-45v-192q0-26 19-45t45-19h704q26 0 45 19t19 45v64h128v-256h-576v-128h-32q-13 0-22.5-9.5t-9.5-22.5v-320q0-13 9.5-22.5t22.5-9.5h128q13 0 22.5 9.5t9.5 22.5v320q0 13-9.5 22.5t-22.5 9.5h-32v64h576zM768 768h-704v64h704v-64z" />
<glyph unicode="&#x30;" glyph-name="zero" d="M896 768h-768v-640h768v640zM1024 896v-896h-1024v896h1024zM832 192h-640v128l192 320 263-320 185 128v-256zM640 608q0 40 28 68t68 28 68-28 28-68-28-68-68-28-68 28-28 68z" />
<glyph unicode="&#x31;" glyph-name="one" d="M0 832v-832h1024v832h-1024zM960 64h-896v704h896v-704zM704 608q0 40 28 68t68 28 68-28 28-68-28-68-68-28-68 28-28 68zM896 128h-768l192 512 256-320 128 96z" />
<glyph unicode="&#x32;" glyph-name="two" d="M0 832v-768h1024v768h-1024zM960 128h-64l-192 288-128-96-256 320-192-512h-64v640h896v-640zM704 608q0 40 28 68t68 28 68-28 28-68-28-68-68-28-68 28-28 68z" />
<glyph unicode="&#x33;" glyph-name="three" d="M960 960h64v-736q0-66.5-65.75-113.25t-158.25-46.75-158.25 46.75-65.75 113.25 65.75 113.25 158.25 46.75q94 0 160-48v368l-512-114v-494q0-66.5-65.75-113.25t-158.25-46.75-158.25 46.75-65.75 113.25 65.75 113.25 158.25 46.75q94 0 160-48v624z" />
<glyph unicode="&#x34;" glyph-name="four" d="M960 960l-576-128v-624q-66 48-160 48-92.5 0-158.25-46.75t-65.75-113.25 65.75-113.25 158.25-46.75 158.25 46.75 65.75 113.25v413.5l512 113.5v-287q-66 48-160 48-92.5 0-158.25-46.75t-65.75-113.25 65.75-113.25 158.25-46.75 158.25 46.75 65.75 113.25v736h-64zM224 12q-61 0-104.5 26.5t-43.5 57.5 43.5 57.5 104.5 26.5 104.5-26.5 43.5-57.5-43.5-57.5-104.5-26.5zM800 140q-61 0-104.5 26.5t-43.5 57.5 43.5 57.5 104.5 26.5 104.5-26.5 43.5-57.5-43.5-57.5-104.5-26.5zM960 705l-512-113.5v126.5l512 114v-127z" />
<glyph unicode="&#x35;" glyph-name="five" d="M0 960v-1024h960v1024h-960zM192 0h-128v896h64v-640h64v-256zM448 0h-192v256h64v640h64v-640h64v-256zM704 0h-192v256h64v640h64v-640h64v-256zM896 0h-128v256h64v640h64v-896z" />
<glyph unicode="&#x36;" glyph-name="six" d="M880 704l144 128q-9 48.5-44.25 83.75t-83.75 44.25l-128-144v-34l-181.5-181.5q-120 98.5-201.5 31.5-17.5-14.5-32.5-40.25t-26.25-49-20.25-31.25q-12-11-34.25-16.25t-48-8.25-53.75-9.25-59.75-24-58.25-46.75q-32-35-43.75-73.5t-6.75-72.75 24.5-71.5 43.25-66.75 55.75-61.5 61.5-55.75 66.75-43.25 71.5-24.5 72.75 6.75 73.5 43.75q29 26.5 46.75 58.25t24 59.75 9.25 53.75 8.25 48 16.25 34.25q8 9 31.25 20.25t49 26.25 40.25 32.5q67 81.5-31.5 201.5l181.5 181.5h34zM293 101l-128 128 54 54 128-128zM480 320q-40 0-68 28t-28 68 28 68 68 28 68-28 28-68-28-68-68-28z" />
<glyph unicode="&#x37;" glyph-name="seven" d="M192 381.5v-443q17.5-2.5 32-2.5h32v448h-32q-14.5 0-32-2.5zM768 384v-448h32q14.5 0 32 2.5v443q-17.5 2.5-32 2.5h-32zM1024 448q0 104.5-40.5 199.25t-109 163.25-163.25 109-199.25 40.5-199.25-40.5-163.25-109-109-163.25-40.5-199.25q0-92 30.5-175-30.5-51.5-30.5-113 0-66 35.25-120.5t92.75-82v405q-30-14-55-37-9 43.5-9 90.5 0 91 35.5 174t95.5 143 143 95.5 174 35.5 174-35.5 143-95.5 95.5-143 35.5-174q0-47-9-90.5-25 23-55 37v-405q57.5 27.5 92.75 82t35.25 120.5q0 61.5-30.5 113 30.5 83 30.5 175z" />
<glyph unicode="&#x38;" glyph-name="eight" d="M512 832q-91 0-174-35.5t-143-95.5-95.5-143-35.5-174v-192h64v192q0 62 19.5 114.5t54.5 90 83.25 63.75 105.5 39 121.25 12.75 121.25-12.75 105.5-39 83.25-63.75 54.5-90 19.5-114.5v-192h64v192q0 91-35.5 174t-95.5 143-143 95.5-174 35.5zM277.5 384h-43q-17.5 0-30-12.5t-12.5-30v-235q0-17.5 12.5-30t30-12.5h43q17.5 0 30 12.5t12.5 30v235q0 17.5-12.5 30t-30 12.5zM789.5 384h-43q-17.5 0-30-12.5t-12.5-30v-235q0-17.5 12.5-30t30-12.5h43q17.5 0 30 12.5t12.5 30v235q0 17.5-12.5 30t-30 12.5z" />
<glyph unicode="&#x39;" glyph-name="nine" d="M864 768h-512q-66 0-113-47t-47-113v-512q0-66 47-113t113-47h512q66 0 113 47t47 113v512q0 66-47 113t-113 47zM416 64q-40 0-68 28t-28 68 28 68 68 28 68-28 28-68-28-68-68-28zM416 448q-40 0-68 28t-28 68 28 68 68 28 68-28 28-68-28-68-68-28zM608 256q-40 0-68 28t-28 68 28 68 68 28 68-28 28-68-28-68-68-28zM800 64q-40 0-68 28t-28 68 28 68 68 28 68-28 28-68-28-68-68-28zM800 448q-40 0-68 28t-28 68 28 68 68 28 68-28 28-68-28-68-68-28zM829 832q-11.5 55-55.5 91.5t-101.5 36.5h-512q-66 0-113-47t-47-113v-512q0-57.5 36.5-101.5t91.5-55.5v637q0 26 19 45t45 19h637z" />
<glyph unicode="&#x3a;" glyph-name="colon" d="M320 640h-64v-64h-64v-64h64v-64h64v64h64v64h-64v64zM640 592q0 20 14 34t34 14 34-14 14-34-14-34-34-14-34 14-14 34zM736 496q0 20 14 34t34 14 34-14 14-34-14-34-34-14-34 14-14 34zM739.5 788q-32 0-58.75-7t-45.25-17-36-20.25-39.75-17.25-47.75-7-47.75 7-39.75 17.25-36 20.25-45.25 17-58.75 7q-54 0-101.25-25.25t-80.25-66.25-56.75-92.75-35-105.25-11.25-104q0-128 15.75-200.25t56.75-83.75q21-5.5 45.5 1t52.25 25.25 51.5 38.75 55.25 49.5q20.5 19.5 35.5 31.25t25.5 18.75 23.5 9.75 21 3.25 27 0.5h10l92.5-2 92.5 2h10q18.5 0 27-0.5t21.25-3.25 23.25-9.75 25.5-18.75 35.5-31.25q31.5-29.5 55.25-49.5t51.5-38.75 52.25-25.25 45.5-1q41 11.5 56.75 83.75t15.75 200.25q0 50.5-11.25 104t-35 105.25-56.75 92.75-80.25 66.25-101.25 25.25zM288 384q-66.5 0-113.25 46.75t-46.75 113.25 46.75 113.25 113.25 46.75 113.25-46.75 46.75-113.25-46.75-113.25-113.25-46.75zM736 384q-66.5 0-113.25 46.75t-46.75 113.25 46.75 113.25 113.25 46.75 113.25-46.75 46.75-113.25-46.75-113.25-113.25-46.75z" />
<glyph unicode="&#x3b;" glyph-name="semicolon" d="M952 644q-38.5 63-92.5 100-60.5 41-132 41-30 0-57.25-6.75t-40.75-13-35.5-18.75q-16.5-9.5-26-14t-24.5-8.5-31.5-4-31.5 4-24.5 8.5-26 14q-22 12.5-35.5 18.75t-40.75 13-57.25 6.75q-71.5 0-132-41-54-37-92.5-100-34-55.5-53-124t-19-134.5q0-124.5 14.5-190 20-90 74-105 14-3.5 25-3.5 42.5 0 88.5 31t105.5 87.5q39.5 37.5 56 45.25t43.5 7.75h17l88-2 88 2h17q27 0 43.5-7.75t56-45.25q59.5-56.5 105.5-87.5t88.5-31q13 0 25 3 53.5 14.5 74 105.5 14.5 65.5 14.5 190 0 66-19 134.5t-53 124zM947 209q-11-52-28.5-57-5-1-8-1-15 0-35.25 10t-44 29.25-37.25 31-33.5 30.75q-46 43-74.5 57.5-27 13-69 13h-18.5l-86.5-2-88 2h-17q-42 0-69-13-28.5-14.5-74.5-57.5-20-19-33.5-30.75t-37.25-31-44-29.25-35.25-10q-3 0-8 1-17.5 5-28.5 57-13 58-13 176.5 0 56.5 17 117.5t45.5 107.5q32 52.5 73.5 80.5 44 30 96.5 30 23 0 42.5-4.75t30.5-10 29.5-15.75q19-11 31.5-17t35-11.75 46.5-5.75 46.5 5.75 35 11.75 31.5 17q18.5 10.5 29.5 15.75t30.5 10 42.5 4.75q52 0 96.5-30 41.5-28 73.5-80.5 28.5-46.5 45.5-107.5t17-117.5q0-118.5-13-176.5zM640 576q0 26.5 18.75 45.25t45.25 18.75 45.25-18.75 18.75-45.25-18.75-45.25-45.25-18.75-45.25 18.75-18.75 45.25zM768 448q0 26.5 18.75 45.25t45.25 18.75 45.25-18.75 18.75-45.25-18.75-45.25-45.25-18.75-45.25 18.75-18.75 45.25zM256 576q26.5 0 45.25-18.75t18.75-45.25-18.75-45.25-45.25-18.75-45.25 18.75-18.75 45.25 18.75 45.25 45.25 18.75zM256 640q-53 0-90.5-37.5t-37.5-90.5 37.5-90.5 90.5-37.5 90.5 37.5 37.5 90.5-37.5 90.5-90.5 37.5z" />
<glyph unicode="&#x3c;" glyph-name="less" d="M800 640h-576q-92.5 0-158.25-65.75t-65.75-158.25 65.75-158.25 158.25-65.75q66 0 120.5 35.25t82 92.75h171q27.5-57.5 82-92.75t120.5-35.25q92.5 0 158.25 65.75t65.75 158.25-65.75 158.25-158.25 65.75zM338 384h-82v-82h-64v82h-82v64h82v82h64v-82h82v-64zM736 302q-20.5 0-35.25 14.75t-14.75 35.25 14.75 35.25 35.25 14.75 35.25-14.75 14.75-35.25-14.75-35.25-35.25-14.75zM864 430q-20.5 0-35.25 14.75t-14.75 35.25 14.75 35.25 35.25 14.75 35.25-14.75 14.75-35.25-14.75-35.25-35.25-14.75z" />
<glyph unicode="&#x3d;" glyph-name="equal" d="M964.5 781q-72 84-173 131.5t-215.5 47.5q-104.5 0-199.25-40.5t-163.25-109-109-163.25-40.5-199.25 40.5-199.25 109-163.25 163.25-109 199.25-40.5q114.5 0 215.5 47.5t173 131.5l-324.5 333zM704 839.5q29.5 0 50.5-21t21-50.5-21-50.5-50.5-21-50.5 21-21 50.5 21 50.5 50.5 21z" />
<glyph unicode="&#x3e;" glyph-name="greater" d="M817.5 612q-55.5 41.5-101.75 83.5t-76.25 75-56.25 70.5-40.5 62-30.75 57v0q-16.5-32.5-30.75-57t-40.5-62-56.25-70.5-76.25-75-101.75-83.5q-120.5-89.5-139.5-199.5-14.5-86.5 36.5-158 45.5-64 123.5-86.5 97-28.5 194.5 21.5 19.5 10 38.5 23-13-83.5-52-146.75t-88-92.25v-37.5h384v37.5q-49 29-88 92.25t-52 146.75q98-67.5 202.5-51.5 83.5 13 138.5 74 57 63 55 146.5-3 105.5-102 197-18.5 17-40.5 33.5z" />
<glyph unicode="&#x3f;" glyph-name="question" d="M1024 448q0 104.5-40.5 199.25t-109 163.25-163.25 109-199.25 40.5-199.25-40.5-163.25-109-109-163.25-40.5-199.25q0-108 42.75-205.25t118-168 172.75-106.75l-13.5-32h384l-13.5 32q97.5 36 172.75 106.75t118 168 42.75 205.25zM487 325q-17.5 7.5-28.25 23.5t-10.75 35.5q0 26.5 18.75 45.25t45.25 18.75 45.25-18.75 18.75-45.25q0-19.5-10.75-35.5t-28.25-23.5l-25 59zM538.5 322.5q44 9 72.75 44.25t28.75 81.25q0 53-37.5 90.5t-90.5 37.5-90.5-37.5-37.5-90.5q0-45.5 29-80.75t73-44.25l-75-174.5q-69.5 29.5-112.25 93.5t-42.75 142q0 52.5 20.25 101.5t54.5 85.75 81.75 58.75 99.5 22 99.5-22 81.75-58.75 54.5-85.75 20.25-101.5q0-78-42.75-142t-112.25-93.5zM688.5-27.5l-74 172.5q96 32.5 156.75 115.5t60.75 187.5q0 65-25.5 124.25t-68.25 102-102 68.25-124.25 25.5-124.25-25.5-102-68.25-68.25-102-25.5-124.25q0-104.5 60.75-187.5t156.75-115.5l-74-172.5q-121.5 52-196.5 163.5t-75 248q0 73 22.5 142.5t64 126.5 96.5 100.25 123.5 67 141.5 23.75 141.5-23.75 123.5-67 96.5-100.25 64-126.5 22.5-142.5q0-136.5-75-248t-196.5-163.5z" />
<glyph unicode="&#x40;" glyph-name="at" d="M640 640q0 53-37.5 90.5t-90.5 37.5-90.5-37.5-37.5-90.5q0-33.5 16-62.25t43-45.75l-162.5-596h79l17.5 64h270l17.5-64h79l-162.5 596q27 17 43 45.75t16 62.25zM595 192h-166l17.5 64h131zM464 320l48 175.5 48-175.5h-96zM394.5 64l17.5 64h200l17.5-64h-235zM664.5 921.5q76-41 121.75-116.25t45.75-165.25-45.75-165.25-121.75-116.25q33.5 53.5 52.5 126.5t19 155-19 155-52.5 126.5zM856.5 921.5q76-41 121.75-116.25t45.75-165.25-45.75-165.25-121.75-116.25q33.5 53.5 52.5 126.5t19 155-19 155-52.5 126.5zM359.5 358.5q-76 41-121.75 116.25t-45.75 165.25 45.75 165.25 121.75 116.25q-33.5-53.5-52.5-126.5t-19-155 19-155 52.5-126.5zM0 640q0 90 45.75 165.25t121.75 116.25q-33.5-53.5-52.5-126.5t-19-155 19-155 52.5-126.5q-76 41-121.75 116.25t-45.75 165.25z" />
<glyph unicode="&#x41;" glyph-name="A" d="M384 448q0 53 37.5 90.5t90.5 37.5 90.5-37.5 37.5-90.5-37.5-90.5-90.5-37.5-90.5 37.5-37.5 90.5zM664.5 729.5q76-41 121.75-116.25t45.75-165.25-45.75-165.25-121.75-116.25q33.5 53.5 52.5 126.5t19 155-19 155-52.5 126.5zM288 448q0-82 19-155t52.5-126.5q-76 41-121.75 116.25t-45.75 165.25 45.75 165.25 121.75 116.25q-33.5-53.5-52.5-126.5t-19-155zM96 448q0-126.5 37.25-238.5t103.25-193q-109 69.5-172.75 183.5t-63.75 248 63.75 248 172.75 183.5q-66-81-103.25-193t-37.25-238.5zM787.5 879.5q109-69.5 172.75-183.5t63.75-248-63.75-248-172.75-183.5q66 81 103.25 193t37.25 238.5-37.25 238.5-103.25 193z" />
<glyph unicode="&#x42;" glyph-name="B" d="M448 192q0 26.5 18.75 45.25t45.25 18.75 45.25-18.75 18.75-45.25-18.75-45.25-45.25-18.75-45.25 18.75-18.75 45.25zM512 832q-141.5 0-266.5-58t-215-160.5l48-42q80.5 92 193.25 144.25t240.25 52.25 240.25-52.25 193.25-144.25l48 42q-90 102.5-215 160.5t-266.5 58zM512 640q-99 0-186.75-40.5t-150.25-112.5l48-42q54 61.5 129 96.25t160 34.75 160-34.75 129-96.25l48 42q-62.5 72-150.25 112.5t-186.75 40.5zM512 448q-56.5 0-106.5-23.25t-86-64.25l48-42q27 30.5 64.5 48t80 17.5 80-17.5 64.5-48l48 42q-36 41-86 64.25t-106.5 23.25z" />
<glyph unicode="&#x43;" glyph-name="C" d="M448 576l-256-640h97l223 195 223-195h97l-256 640h-128zM298 29l86 214 79.5-69.5zM726 29l-165.5 144.5 79.5 69.5zM512 216l-103 90 82.5 206h41l82.5-206zM733.5 832q34.5-59 34.5-128t-34.5-128l55.5-32q43 75 43 160t-43 160zM290.5 576q-34.5 59-34.5 128t34.5 128l-55.5 32q-43-75-43-160t43-160zM68.5 960q-68.5-119-68.5-256t68.5-256l55.5 32q-60 104-60 224t60 224zM1024 704q0 137-68.5 256l-55.5-32q60-104 60-224t-60-224l55.5-32q68.5 119 68.5 256zM448 704q0 26.5 18.75 45.25t45.25 18.75 45.25-18.75 18.75-45.25-18.75-45.25-45.25-18.75-45.25 18.75-18.75 45.25z" />
<glyph unicode="&#x44;" glyph-name="D" d="M512 960q-104.5 0-199.25-40.5t-163.25-109-109-163.25-40.5-199.25q0-104 39.5-197.5t110.5-164.5l45 45q-62 62-96.5 144t-34.5 173 35.5 174 95.5 143 143 95.5 174 35.5 174-35.5 143-95.5 95.5-143 35.5-174-34.5-173-96.5-144l45-45q71 71 110.5 164.5t39.5 197.5q0 104.5-40.5 199.25t-109 163.25-163.25 109-199.25 40.5zM512 960q-104.5 0-199.25-40.5t-163.25-109-109-163.25-40.5-199.25q0-104 39.5-197.5t110.5-164.5l45 45q-62 62-96.5 144t-34.5 173 35.5 174 95.5 143 143 95.5 174 35.5 174-35.5 143-95.5 95.5-143 35.5-174-34.5-173-96.5-144l45-45q71 71 110.5 164.5t39.5 197.5q0 104.5-40.5 199.25t-109 163.25-163.25 109-199.25 40.5zM512 768q-65 0-124.25-25.5t-102-68.25-68.25-102-25.5-124.25q0-65.5 24.5-123.75t69-102.75l45.5 45.5q-35.5 35.5-55.25 82.25t-19.75 98.75q0 106 75 181t181 75 181-75 75-181q0-52-19.75-98.75t-55.25-82.25l45.5-45.5q44.5 44.5 69 102.75t24.5 123.75q0 65-25.5 124.25t-68.25 102-102 68.25-124.25 25.5zM602.5 357.5q37.5 37.5 37.5 90.5t-37.5 90.5-90.5 37.5-90.5-37.5-37.5-90.5 37.5-90.5l45 45q-18.5 18.5-18.5 45.5 0 26.5 18.75 45.25t45.25 18.75 45.25-18.75 18.75-45.25q0-27-18.5-45.5zM488 384l-168-448h384l-168 448h-48z" />
<glyph unicode="&#x45;" glyph-name="E" d="M864 960h-768q-40 0-68-28t-28-68v-832q0-40 28-68t68-28h768q40 0 68 28t28 68v832q0 40-28 68t-68 28zM832 64h-704v768h704v-768zM256 384h448v-64h-448v64zM256 256h448v-64h-448v64zM320 672q0 40 28 68t68 28 68-28 28-68-28-68-68-28-68 28-28 68zM480 576h-128q-39.5 0-67.75-18.75t-28.25-45.25v-64h320v64q0 26.5-28.25 45.25t-67.75 18.75z" />
<glyph unicode="&#x46;" glyph-name="F" d="M892 772l-120 120q-28 28-76.25 48t-87.75 20h-448q-40 0-68-28t-28-68v-832q0-40 28-68t68-28h704q40 0 68 28t28 68v576q0 39.5-20 87.75t-48 76.25zM832 64h-640v768h416q11.5 0 32-7.5v-184.5h184.5q7.5-20.5 7.5-32v-544z" />
<glyph unicode="&#x47;" glyph-name="G" d="M892 772l-120 120q-28 28-76.25 48t-87.75 20h-448q-40 0-68-28t-28-68v-832q0-40 28-68t68-28h704q40 0 68 28t28 68v576q0 39.5-20 87.75t-48 76.25zM640 824.5q1-0.5 3.5-1.25t3.5-1.25q24-10 34.5-20.5l120-120q10.5-10.5 20.5-34.5 0.5-1 1.25-3.5t1.25-3.5h-184.5v184.5zM832 64h-640v768h384v-256h256v-512z" />
<glyph unicode="&#x48;" glyph-name="H" d="M892 772l-120 120q-28 28-76.25 48t-87.75 20h-448q-40 0-68-28t-28-68v-832q0-40 28-68t68-28h704q40 0 68 28t28 68v576q0 39.5-20 87.75t-48 76.25zM640 824.5q1-0.5 3.5-1.25t3.5-1.25q24-10 34.5-20.5l120-120q10.5-10.5 20.5-34.5 0.5-1 1.25-3.5t1.25-3.5h-184.5v184.5zM832 64h-640v768h384v-256h256v-512zM256 448h512v-64h-512v64zM256 320h512v-64h-512v64zM256 192h512v-64h-512v64z" />
<glyph unicode="&#x49;" glyph-name="I" d="M903.5 760.5q20.5-20.5 36-54.5t19.5-66h-319v319q32-4 66-19.5t54.5-36zM576 576h384v-560q0-33-23.5-56.5t-56.5-23.5h-736q-33 0-56.5 23.5t-23.5 56.5v864q0 33 23.5 56.5t56.5 23.5h432v-384z" />
<glyph unicode="&#x4a;" glyph-name="J" d="M903.5 760.5q20.5-20.5 36-54.5t19.5-66h-319v319q32-4 66-19.5t54.5-36zM576 576v384h-432q-33 0-56.5-23.5t-23.5-56.5v-864q0-33 23.5-56.5t56.5-23.5h736q33 0 56.5 23.5t23.5 56.5v560h-384zM832 64h-640v64h640v-64zM832 192h-640v64h640v-64zM832 320h-640v64h640v-64z" />
<glyph unicode="&#x4b;" glyph-name="K" d="M64 896h576v-192h192v-320h64v320l-256 256h-640v-1024h576v64h-512v896zM922.5 128l101.5 101.5v90.5h-90.5l-101.5-101.5-101.5 101.5h-90.5v-90.5l101.5-101.5-101.5-101.5v-90.5h90.5l101.5 101.5 101.5-101.5h90.5v90.5z" />
<glyph unicode="&#x4c;" glyph-name="L" d="M903.5 760.5l-143 143q-23.5 23.5-63.5 40t-73 16.5h-480q-33 0-56.5-23.5t-23.5-56.5v-864q0-33 23.5-56.5t56.5-23.5h736q33 0 56.5 23.5t23.5 56.5v608q0 33-16.5 73t-40 63.5zM858 715.5q5.5-5.5 9.5-11.5h-163.5v163.5q6-4 11.5-9.5zM896 16q0-6.5-4.75-11.25t-11.25-4.75h-736q-6.5 0-11.25 4.75t-4.75 11.25v864q0 6.5 4.75 11.25t11.25 4.75h480q8 0 16-1.5v-254.5h254.5q1.5-8 1.5-16v-608z" />
<glyph unicode="&#x4d;" glyph-name="M" d="M832 704h-192v64l-192 192h-448v-768h384v-256h640v576zM832 613.5l101.5-101.5h-101.5v101.5zM448 869.5l101.5-101.5h-101.5v101.5zM64 896h320v-192h192v-448h-512v640zM960 0h-512v192h192v448h128v-192h192v-448z" />
<glyph unicode="&#x4e;" glyph-name="N" d="M864 832h-64v-64h32v-512h-256v-256h-384v768h32v64h-64q-13 0-22.5-9.5t-9.5-22.5v-832q0-13 9.5-22.5t22.5-9.5h504l232 232v632q0 13-9.5 22.5t-22.5 9.5zM640 0v192h192zM768 832h-128v64q0 26-19 45t-45 19h-128q-26 0-45-19t-19-45v-64h-128v-128h512v128zM576 832h-128v64h128v-64z" />
<glyph unicode="&#x4f;" glyph-name="O" d="M864 832q13 0 22.5-9.5t9.5-22.5v-608l-256-256h-480q-13 0-22.5 9.5t-9.5 22.5v832q0 13 9.5 22.5t22.5 9.5h64v-64h-32v-768h384v256h256v512h-32v64h64zM768 832h-128v64q0 26-19 45t-45 19h-128q-26 0-45-19t-19-45v-64h-128v-128h512v128zM576 832h-128v64h128v-64z" />
<glyph unicode="&#x50;" glyph-name="P" d="M640 704v256h-448l-192-192v-576h384v-256h640v768h-384zM192 869.5v-101.5h-101.5zM64 256v448h192v192h320v-192l-192-192v-256h-320zM576 613.5v-101.5h-101.5zM960 0h-512v448h192v192h320v-640z" />
<glyph unicode="&#x51;" glyph-name="Q" d="M960 704h-896l64 128h352l32-64h416zM0 640l64-640h896l64 640h-1024zM704 444l-124-124 124-124v-68h-68l-124 124-124-124h-68v68l124 124-124 124v68h68l124-124 124 124h68v-68z" />
<glyph unicode="&#x52;" glyph-name="R" d="M448 832l128-128h448v-704h-1024v832h448z" />
<glyph unicode="&#x53;" glyph-name="S" d="M832 0l192 512h-832l-192-512h832zM128 576l-128-576v832h288l128-128h416v-128h-704z" />
<glyph unicode="&#x54;" glyph-name="T" d="M576 704l-128 128h-448v-832h1024v704h-448zM549.5 640h410.5v-8h-896v16h477.5zM64 64v8h896v-8h-896zM64 88v16h896v-16h-896zM64 120v16h896v-16h-896zM64 152v16h896v-16h-896zM64 184v16h896v-16h-896zM64 216v16h896v-16h-896zM64 248v16h896v-16h-896zM64 280v16h896v-16h-896zM64 312v16h896v-16h-896zM64 344v16h896v-16h-896zM64 376v16h896v-16h-896zM64 408v16h896v-16h-896zM64 440v16h896v-16h-896zM64 472v16h896v-16h-896zM64 504v16h896v-16h-896zM64 536v16h896v-16h-896zM64 568v16h896v-16h-896zM64 600v16h896v-16h-896zM421.5 768l8-8h-365.5v8h357.5zM445.5 744l16-16h-397.5v16h381.5zM477.5 712l16-16h-429.5v16h413.5zM509.5 680l16-16h-461.5v16h445.5z" />
<glyph unicode="&#x55;" glyph-name="U" d="M421.5 768l109-109.5 19-18.5h410.5v-576h-896v704h357.5zM448 832h-448v-832h1024v704h-448z" />
<glyph unicode="&#x56;" glyph-name="V" d="M576 704l-128 128h-448v-832h1024v704h-448zM704 256h-128v-128h-128v128h-128v128h128v128h128v-128h128v-128z" />
<glyph unicode="&#x57;" glyph-name="W" d="M624.5 640h-496.5v-448h496.5q8.5 0.5 24.25 7t22.25 12.5l205 204.5-205 204.5q-6.5 6-22.25 12.5t-24.25 7zM625 768q33 0 73-16.5t63.5-40l239-239q23.5-23.5 23.5-56.5t-23.5-56.5l-239-239q-23.5-23.5-63.5-40t-73-16.5h-545q-33 0-56.5 23.5t-23.5 56.5v544q0 33 23.5 56.5t56.5 23.5h545zM512 416q0 40 28 68t68 28 68-28 28-68-28-68-68-28-68 28-28 68z" />
<glyph unicode="&#x58;" glyph-name="X" d="M625 704h-545q-6.5 0-11.25-4.75t-4.75-11.25v-544q0-6.5 4.75-11.25t11.25-4.75h545q20 0 48.5 11.75t43 26.25l239 238.5q4.5 4.5 4.5 11.5t-4.5 11.5l-239 238.5q-14.5 14.5-43 26.25t-48.5 11.75zM625 768q33 0 73-16.5t63.5-40l239-239q23.5-23.5 23.5-56.5t-23.5-56.5l-239-239q-23.5-23.5-63.5-40t-73-16.5h-545q-33 0-56.5 23.5t-23.5 56.5v544q0 33 23.5 56.5t56.5 23.5h545zM576 416q0 40 28 68t68 28 68-28 28-68-28-68-68-28-68 28-28 68z" />
<glyph unicode="&#x59;" glyph-name="Y" d="M544 960l-544-544 480-480 544 544v480h-480zM800 640q-40 0-68 28t-28 68 28 68 68 28 68-28 28-68-28-68-68-28z" />
<glyph unicode="&#x5a;" glyph-name="Z" d="M928 960h-289q-39.5 0-87.75-20t-76.25-48l-447-447q-28-28-28-68t28-68l345-345q28-28 68-28t68 28l447 447q28 28 48 76.25t20 87.75v289q0 40-28 68t-68 28zM800 640q-40 0-68 28t-28 68 28 68 68 28 68-28 28-68-28-68-68-28z" />
<glyph unicode="&#x5b;" glyph-name="bracketleft" d="M896 832h-299l-416-416 299-299 416 416v299zM1024 960v-480l-544-544-480 480 544 544h480zM640 672q0 40 28 68t68 28 68-28 28-68-28-68-68-28-68 28-28 68z" />
<glyph unicode="&#x5c;" glyph-name="backslash" d="M896 831.5h-257q-14.5 0-38.5-10-25.5-10.5-35-20l-424-424.5 299.5-299.5 424.5 424q9.5 9.5 20 35 10.5 25 10.5 38.5v256.5zM928 960q40 0 68-28t28-68v-289q0-39.5-20-87.75t-48-76.25l-447-447q-28-28-68-28t-68 28l-345 345q-28 28-28 68t28 68l447 447q28 28 76.25 48t87.75 20h289zM640 672q0 40 28 68t68 28 68-28 28-68-28-68-68-28-68 28-28 68z" />
<glyph unicode="&#x5d;" glyph-name="bracketright" d="M832 192h-544q-24.5 0-42.5 16t-21 40l-57 456h-103.5q-26.5 0-45.25 18.75t-18.75 45.25 18.75 45.25 45.25 18.75h160q24.5 0 42.5-16t21-40l57-456h439l115 401.5q7 25.5 30.25 38.25t48.75 5.75 38.25-30.25 5.75-48.75l-128-448q-6-20.5-23-33.5t-38.5-13zM256 32q0 40 28 68t68 28 68-28 28-68-28-68-68-28-68 28-28 68zM640 32q0 40 28 68t68 28 68-28 28-68-28-68-68-28-68 28-28 68zM768 512h-128v-128h-128v128h-128v128h128v128h128v-128h128v-128z" />
<glyph unicode="&#x5e;" glyph-name="asciicircum" d="M832 192h-544q-24.5 0-42.5 16t-21 40l-57 456h-103.5q-26.5 0-45.25 18.75t-18.75 45.25 18.75 45.25 45.25 18.75h160q24.5 0 42.5-16t21-40l57-456h439l115 401.5q7 25.5 30.25 38.25t48.75 5.75 38.25-30.25 5.75-48.75l-128-448q-6-20.5-23-33.5t-38.5-13zM256 32q0 40 28 68t68 28 68-28 28-68-28-68-68-28-68 28-28 68zM640 32q0 40 28 68t68 28 68-28 28-68-28-68-68-28-68 28-28 68zM384 640h384v-128h-384v128z" />
<glyph unicode="&#x5f;" glyph-name="underscore" d="M977.5 765.5q25.5-7 38.25-30.25t5.75-48.75l-128-448q-6-20.5-23-33.5t-38.5-13h-544q-24.5 0-42.5 16t-21 40l-57 456h-103.5q-26.5 0-45.25 18.75t-18.75 45.25 18.75 45.25 45.25 18.75h160q24.5 0 42.5-16t21-40l57-456h439l115 401.5q7 25.5 30.25 38.25t48.75 5.75zM256 32q0 40 28 68t68 28 68-28 28-68-28-68-68-28-68 28-28 68zM640 32q0 40 28 68t68 28 68-28 28-68-28-68-68-28-68 28-28 68zM364 640h148v192h128v-192h148l-212-228z" />
<glyph unicode="&#x60;" glyph-name="grave" d="M977.5 765.5q25.5-7 38.25-30.25t5.75-48.75l-128-448q-6-20.5-23-33.5t-38.5-13h-544q-24.5 0-42.5 16t-21 40l-57 456h-103.5q-26.5 0-45.25 18.75t-18.75 45.25 18.75 45.25 45.25 18.75h160q24.5 0 42.5-16t21-40l57-456h439l115 401.5q7 25.5 30.25 38.25t48.75 5.75zM256 32q0 40 28 68t68 28 68-28 28-68-28-68-68-28-68 28-28 68zM640 32q0 40 28 68t68 28 68-28 28-68-28-68-68-28-68 28-28 68zM788 576h-148v-192h-128v192h-148l212 228z" />
<glyph unicode="&#x61;" glyph-name="a" d="M832 192h-544q-24.5 0-42.5 16t-21 40l-57 456h-103.5q-26.5 0-45.25 18.75t-18.75 45.25 18.75 45.25 45.25 18.75h160q24.5 0 42.5-16t21-40l57-456h439l115 401.5q7 25.5 30.25 38.25t48.75 5.75 38.25-30.25 5.75-48.75l-128-448q-6-20.5-23-33.5t-38.5-13zM256 32q0 40 28 68t68 28 68-28 28-68-28-68-68-28-68 28-28 68zM640 32q0 40 28 68t68 28 68-28 28-68-28-68-68-28-68 28-28 68zM858.5 806l-268-357-160.5 207 53 49 103.5-91 227.5 230.5z" />
<glyph unicode="&#x62;" glyph-name="b" d="M977.5 765.5q25.5-7 38.25-30.25t5.75-48.75l-128-448q-6-20.5-23-33.5t-38.5-13h-544q-24.5 0-42.5 16t-21 40l-57 456h-103.5q-26.5 0-45.25 18.75t-18.75 45.25 18.75 45.25 45.25 18.75h160q24.5 0 42.5-16t21-40l57-456h439l115 401.5q7 25.5 30.25 38.25t48.75 5.75zM256 32q0 40 28 68t68 28 68-28 28-68-28-68-68-28-68 28-28 68zM640 32q0 40 28 68t68 28 68-28 28-68-28-68-68-28-68 28-28 68zM805.5 501.5l-91-91-138.5 139-138.5-139-91 91 139 138.5-139 138.5 91 91 138.5-139 138.5 139 91-91-139-138.5z" />
<glyph unicode="&#x63;" glyph-name="c" d="M704 320q-20-20-37.5-46.25t-26.75-42.25-25.25-27.75-38.5-11.75q-23 0-46.5 9.75t-51 31.75-45 38.25-49.5 48.25-48.25 49.5-38.25 45-31.75 51-9.75 46.5q0 22.5 11.75 38.5t27.75 25.25 42.25 26.75 46.25 37.5q16.5 16 12.5 41.25t-19.5 53.75-41 57-51.75 51.75-51.5 37.75-40.75 14.5q-18 0-44.25-19.75t-51.25-48-47.25-56.5-35.75-47.75l-13.5-20q0-62.5 37.75-160t97.5-194.25 120.75-157.75 157.75-120.75 194.25-97.5 160-37.75q8 5 20.75 14t46 34.75 58.5 48.5 46 49.75 20.75 45q0 15.5-14.5 40.75t-37.75 51.5-51.75 51.75-57 41-53.75 19.5-41.25-12.5z" />
<glyph unicode="&#x64;" glyph-name="d" d="M704 320q16 16.5 41.25 12.5t53.75-19.5 57-41 51.75-51.75 37.75-51.5 14.5-40.75q0-18-19.75-44.25t-48-51.25-56.5-47.25-47.75-35.75l-20-13.5q-62.5 0-160 37.75t-194.25 97.5-157.75 120.75-120.75 157.75-97.5 194.25-37.75 160q5 8 14 20.75t34.75 46 48.5 58.5 49.75 46 45 20.75q15.5 0 40.75-14.5t51.5-37.75 51.75-51.75 41-57 19.5-53.75-12.5-41.25q-20-20-46.25-37.5t-42.25-26.75-27.75-25.25-11.75-38.5q0-23 9.75-46.5t31.75-51 38.25-45 48.25-49.5 49.5-48.25 45-38.25 51-31.75 46.5-9.75q22.5 0 38.5 11.75t25.25 27.75 26.75 42.25 37.5 46.25zM640 704q-33 0-61.25-15.5t-45.75-42.5q24.5 10 51 10 56 0 96-40t40-96q0-26.5-10-51 27 17.5 42.5 45.75t15.5 61.25q0 53-37.5 90.5t-90.5 37.5zM672 832q-50 0-94-20.5t-75.5-57q52 29.5 113.5 29.5 96 0 164-68t68-164q0-61.5-29.5-113.5 36.5 31.5 57 75.5t20.5 94q0 92.5-65.75 158.25t-158.25 65.75zM736 960q-61 0-115.75-24.25t-94.75-67.25q71 43.5 154.5 43.5 60 0 115-23.5t94.5-63 63-94.5 23.5-115q0-83.5-43.5-154.5 43 40 67.25 94.5t24.25 116q0 58.5-22.75 111.75t-61.5 92-92 61.5-111.75 22.75z" />
<glyph unicode="&#x65;" glyph-name="e" d="M704 320q16 16.5 41.25 12.5t53.75-19.5 57-41 51.75-51.75 37.75-51.5 14.5-40.75q0-18-19.75-44.25t-48-51.25-56.5-47.25-47.75-35.75l-20-13.5q-62.5 0-160 37.75t-194.25 97.5-157.75 120.75-120.75 157.75-97.5 194.25-37.75 160q5 8 14 20.75t34.75 46 48.5 58.5 49.75 46 45 20.75q15.5 0 40.75-14.5t51.5-37.75 51.75-51.75 41-57 19.5-53.75-12.5-41.25q-20-20-46.25-37.5t-42.25-26.75-27.75-25.25-11.75-38.5q0-23 9.75-46.5t31.75-51 38.25-45 48.25-49.5 49.5-48.25 45-38.25 51-31.75 46.5-9.75q22.5 0 38.5 11.75t25.25 27.75 26.75 42.25 37.5 46.25zM736 960q-58.5 0-111.75-22.75t-92-61.5-61.5-92-22.75-111.75 22.75-111.75 61.5-92 92-61.5 111.75-22.75 111.75 22.75 92 61.5 61.5 92 22.75 111.75-22.75 111.75-61.5 92-92 61.5-111.75 22.75zM768 640v-128h-64v128h-128v64h128v128h64v-128h128v-64h-128z" />
<glyph unicode="&#x66;" glyph-name="f" d="M704 320q16 16.5 41.25 12.5t53.75-19.5 57-41 51.75-51.75 37.75-51.5 14.5-40.75q0-18-19.75-44.25t-48-51.25-56.5-47.25-47.75-35.75l-20-13.5q-62.5 0-160 37.75t-194.25 97.5-157.75 120.75-120.75 157.75-97.5 194.25-37.75 160q5 8 14 20.75t34.75 46 48.5 58.5 49.75 46 45 20.75q15.5 0 40.75-14.5t51.5-37.75 51.75-51.75 41-57 19.5-53.75-12.5-41.25q-20-20-46.25-37.5t-42.25-26.75-27.75-25.25-11.75-38.5q0-23 9.75-46.5t31.75-51 38.25-45 48.25-49.5 49.5-48.25 45-38.25 51-31.75 46.5-9.75q22.5 0 38.5 11.75t25.25 27.75 26.75 42.25 37.5 46.25zM736 960q-58.5 0-111.75-22.75t-92-61.5-61.5-92-22.75-111.75 22.75-111.75 61.5-92 92-61.5 111.75-22.75 111.75 22.75 92 61.5 61.5 92 22.75 111.75-22.75 111.75-61.5 92-92 61.5-111.75 22.75zM896 640h-320v64h320v-64z" />
<glyph unicode="&#x67;" glyph-name="g" d="M704 320q16 16.5 41.25 12.5t53.75-19.5 57-41 51.75-51.75 37.75-51.5 14.5-40.75q0-18-19.75-44.25t-48-51.25-56.5-47.25-47.75-35.75l-20-13.5q-62.5 0-160 37.75t-194.25 97.5-157.75 120.75-120.75 157.75-97.5 194.25-37.75 160q5 8 14 20.75t34.75 46 48.5 58.5 49.75 46 45 20.75q15.5 0 40.75-14.5t51.5-37.75 51.75-51.75 41-57 19.5-53.75-12.5-41.25q-20-20-46.25-37.5t-42.25-26.75-27.75-25.25-11.75-38.5q0-23 9.75-46.5t31.75-51 38.25-45 48.25-49.5 49.5-48.25 45-38.25 51-31.75 46.5-9.75q22.5 0 38.5 11.75t25.25 27.75 26.75 42.25 37.5 46.25zM960 640h-128v-128h-128v128h-128v128h128v128h128v-128h128v-128z" />
<glyph unicode="&#x68;" glyph-name="h" d="M704 320q16 16.5 41.25 12.5t53.75-19.5 57-41 51.75-51.75 37.75-51.5 14.5-40.75q0-18-19.75-44.25t-48-51.25-56.5-47.25-47.75-35.75l-20-13.5q-62.5 0-160 37.75t-194.25 97.5-157.75 120.75-120.75 157.75-97.5 194.25-37.75 160q5 8 14 20.75t34.75 46 48.5 58.5 49.75 46 45 20.75q15.5 0 40.75-14.5t51.5-37.75 51.75-51.75 41-57 19.5-53.75-12.5-41.25q-20-20-46.25-37.5t-42.25-26.75-27.75-25.25-11.75-38.5q0-23 9.75-46.5t31.75-51 38.25-45 48.25-49.5 49.5-48.25 45-38.25 51-31.75 46.5-9.75q22.5 0 38.5 11.75t25.25 27.75 26.75 42.25 37.5 46.25zM576 768h384v-128h-384v128zM576 768h384v-128h-384v128z" />
<glyph unicode="&#x69;" glyph-name="i" d="M544 960l-96-96 96-96-224-256h-224l176-176-272-360.5v-39.5h39.5l360.5 272 176-176v224l256 224 96-96 96 96zM448 416l-64 64 224 224 64-64z" />
<glyph unicode="&#x6a;" glyph-name="j" d="M512 960q-65 0-124.25-25.5t-102-68.25-68.25-102-25.5-124.25q0-65.5 17.75-139.5t45.75-140.25 62.25-131.25 68.5-117 62.25-92 45.5-62l18-22q6.5 8 18 22.5t44.75 60.75 63.5 93.5 67.25 115.5 63.5 132.5 44.75 139 18.25 140.25q0 65-25.5 124.25t-68.25 102-102 68.25-124.25 25.5zM512 448q-79.5 0-135.75 56.25t-56.25 135.75 56.25 135.75 135.75 56.25 135.75-56.25 56.25-135.75-56.25-135.75-135.75-56.25z" />
<glyph unicode="&#x6b;" glyph-name="k" d="M512 960q-65 0-124.25-25.5t-102-68.25-68.25-102-25.5-124.25q0-51.5 11-104t29.5-98 42.5-89.5 50.5-80.5 53-69 50.5-57 42.5-42.25 29.5-26.75l11-9q6.5 5.5 18 15.25t44.75 42.75 63.5 68 67.25 88.75 63.5 107.25 44.75 121 18.25 133q0 65-25.5 124.25t-68.25 102-102 68.25-124.25 25.5zM512 448q-79.5 0-135.75 56.25t-56.25 135.75 56.25 135.75 135.75 56.25 135.75-56.25 56.25-135.75-56.25-135.75-135.75-56.25zM786.5 262.5q-17.5-28.5-44-63.5 1.5-0.5 3.75-1.5t3.25-1.5q34-17 52.25-36t18.25-32-18.25-32-52.25-36q-97-48-237.5-48t-237.5 48q-34 17-52.25 36t-18.25 32 18.25 32 52.25 36q1 0.5 3.25 1.5t3.75 1.5q-26.5 35-44 63.5-52-26.5-80.75-61.25t-28.75-73.25q0-52 51.5-96.25t139.75-70 192.75-25.75 192.75 25.75 139.75 70 51.5 96.25q0 38.5-28.75 73.25t-80.75 61.25z" />
<glyph unicode="&#x6c;" glyph-name="l" d="M512 960q-65 0-124.25-25.5t-102-68.25-68.25-102-25.5-124.25q0-65.5 17.75-139.5t45.75-140.25 62.25-131.25 68.5-117 62.25-92 45.5-62l18-22q6.5 8 18 22.5t44.75 60.75 63.5 93.5 67.25 115.5 63.5 132.5 44.75 139 18.25 140.25q0 65-25.5 124.25t-68.25 102-102 68.25-124.25 25.5zM512 444q-81 0-138.5 57.5t-57.5 138.5 57.5 138.5 138.5 57.5 138.5-57.5 57.5-138.5-57.5-138.5-138.5-57.5zM388 640q0 51.5 36.25 87.75t87.75 36.25 87.75-36.25 36.25-87.75-36.25-87.75-87.75-36.25-87.75 36.25-36.25 87.75z" />
<glyph unicode="&#x6d;" glyph-name="m" d="M512 960q-65 0-124.25-25.5t-102-68.25-68.25-102-25.5-124.25q0-51.5 11-104t29.5-98 42.5-89.5 50.5-80.5 53-69 50.5-57 42.5-42.25 29.5-26.75l11-9q6.5 5.5 18 15.25t44.75 42.75 63.5 68 67.25 88.75 63.5 107.25 44.75 121 18.25 133q0 65-25.5 124.25t-68.25 102-102 68.25-124.25 25.5zM512 444q-81 0-138.5 57.5t-57.5 138.5 57.5 138.5 138.5 57.5 138.5-57.5 57.5-138.5-57.5-138.5-138.5-57.5zM388 640q0-51.5 36.25-87.75t87.75-36.25 87.75 36.25 36.25 87.75-36.25 87.75-87.75 36.25-87.75-36.25-36.25-87.75zM786.5 262.5q-17.5-28.5-44-63.5 1.5-0.5 3.75-1.5t3.25-1.5q34-17 52.25-36t18.25-32-18.25-32-52.25-36q-97-48-237.5-48t-237.5 48q-34 17-52.25 36t-18.25 32 18.25 32 52.25 36q1 0.5 3.25 1.5t3.75 1.5q-26.5 35-44 63.5-52-26.5-80.75-61.25t-28.75-73.25q0-52 51.5-96.25t139.75-70 192.75-25.75 192.75 25.75 139.75 70 51.5 96.25q0 38.5-28.75 73.25t-80.75 61.25z" />
<glyph unicode="&#x6e;" glyph-name="n" d="M512 960q-104.5 0-192.75-51.5t-139.75-139.75-51.5-192.75q0-61.5 13.25-122.75t35.25-113 51-100.75 60.75-88.5 63.5-74.25 60.75-60.25 51-43.75 35.5-27.75l13-9q8 5.5 21.75 15.5t53.75 44.25 76.25 71.5 80.5 95.5 76.25 118.5 53.75 138.25 21.75 156.5q0 104.5-51.5 192.75t-139.75 139.75-192.75 51.5zM512 512q-53 0-90.5 37.5t-37.5 90.5 37.5 90.5 90.5 37.5 90.5-37.5 37.5-90.5-37.5-90.5-90.5-37.5z" />
<glyph unicode="&#x6f;" glyph-name="o" d="M512 960q-104.5 0-192.75-51.5t-139.75-139.75-51.5-192.75q0-61.5 13.25-122.75t35.25-113 51-100.75 60.75-88.5 63.5-74.25 60.75-60.25 51-43.75 35.5-27.75l13-9q8 5.5 21.75 15.5t53.75 44.25 76.25 71.5 80.5 95.5 76.25 118.5 53.75 138.25 21.75 156.5q0 104.5-51.5 192.75t-139.75 139.75-192.75 51.5zM646 167.5q-62-72.5-134-131-72 58.5-134 131-76 90-118.5 182-51.5 112-51.5 226.5 0 61 23 116.5t66 98.5 98.5 66 116.5 23 116.5-23 98.5-66 66-98.5 23-116.5q0-114.5-51.5-226.5-42.5-92-118.5-182zM512 768q-53 0-90.5-37.5t-37.5-90.5 37.5-90.5 90.5-37.5 90.5 37.5 37.5 90.5-37.5 90.5-90.5 37.5zM512 576q-26.5 0-45.25 18.75t-18.75 45.25 18.75 45.25 45.25 18.75 45.25-18.75 18.75-45.25-18.75-45.25-45.25-18.75z" />
<glyph unicode="&#x70;" glyph-name="p" d="M512 960q-65 0-124.25-23.75t-102-64-68.25-95.75-25.5-116.5q0-48.5 14-94t36.75-83.25 50-76.25 54.5-80.75 50-88.25 36.75-107.5 14-130v-32q0-12.5 8.5-21.75t21-10.25h66.5q13 0 22.5 9.5t9.5 22.5v32q0 68.5 14 130t36.75 107.5 50 88.25 54.5 80.75 50 76.25 36.75 83.25 14 94q0 61-25.5 116.5t-68.25 95.75-102 64-124.25 23.75z" />
<glyph unicode="&#x71;" glyph-name="q" d="M480 896q-97.5 0-186.5-38t-153.25-102.25-102.25-153.25-38-186.5 38-186.5 102.25-153.25 153.25-102.25 186.5-38 186.5 38 153.25 102.25 102.25 153.25 38 186.5-38 186.5-102.25 153.25-153.25 102.25-186.5 38zM480 32q-104.5 0-192.75 51.5t-139.75 139.75-51.5 192.75 51.5 192.75 139.75 139.75 192.75 51.5 192.75-51.5 139.75-139.75 51.5-192.75-51.5-192.75-139.75-139.75-192.75-51.5zM832 431l-213 49 85 115v45h-45l-115-85-49 213h-30l-49-213-115 85h-45v-45l85-115-213-49v-30l213-49-85-115v-45h45l115 85 49-213h30l49 213 115-85h45v45l-85 115 213 49v30zM512 408q0-10-7-17t-17-7h-16q-10 0-17 7t-7 17v16q0 10 7 17t17 7h16q10 0 17-7t7-17v-16z" />
<glyph unicode="&#x72;" glyph-name="r" d="M512 960q-104.5 0-199.25-40.5t-163.25-109-109-163.25-40.5-199.25 40.5-199.25 109-163.25 163.25-109 199.25-40.5 199.25 40.5 163.25 109 109 163.25 40.5 199.25-40.5 199.25-109 163.25-163.25 109-199.25 40.5zM512 32q-84.5 0-161.75 33t-132.75 88.5-88.5 132.75-33 161.75 33 161.75 88.5 132.75 132.75 88.5 161.75 33 161.75-33 132.75-88.5 88.5-132.75 33-161.75-33-161.75-88.5-132.75-132.75-88.5-161.75-33zM608 544l-288 160h-64v-64l160-288 288-160h64v64zM512 384q-26.5 0-45.25 18.75t-18.75 45.25 18.75 45.25 45.25 18.75 45.25-18.75 18.75-45.25-18.75-45.25-45.25-18.75z" />
<glyph unicode="&#x73;" glyph-name="s" d="M768 800l-512 128-256-160v-832l256 160 512-128 256 160v832zM704 50l-384 96v700l384-96v-700z" />
<glyph unicode="&#x74;" glyph-name="t" d="M768 800l-512 128-256-160v-832l256 160 512-128 256 160v832zM320 146v700l8-2v-700zM344 140v700l16-4v-700zM376 132v700l16-4v-700zM408 124v700l16-4v-700zM440 116v700l16-4v-700zM472 108v700l16-4v-700zM504 100v700l16-4v-700zM536 92v700l16-4v-700zM568 84v700l16-4v-700zM600 76v700l16-4v-700zM632 68v700l16-4v-700zM664 60v700l16-4v-700zM704 50l-8 2v700l8-2v-700z" />
<glyph unicode="&#x75;" glyph-name="u" d="M0 768l320 128v-768l-320-128v768zM704 768v-768l-320 106.5v768zM1024 896v-768l-256-102.5v768z" />
<glyph unicode="&#x76;" glyph-name="v" d="M672 768l-320 128-352-128v-768l352 128 320-128 352 128v768zM384 814.5l256-102.5v-630.5l-256 102.5v630.5zM64 723l256 93.5v-632l-256-93v631.5zM960 173l-256-93.5v632l256 93v-631.5z" />
<glyph unicode="&#x77;" glyph-name="w" d="M800 576l192 128-192 128h-224v80q0 20-14 34t-34 14h-32q-20 0-34-14t-14-34v-80h-320v-256h320v-64h-288l-128-96 128-96h288v-384h128v384h256v192h-256v64h224z" />
<glyph unicode="&#x78;" glyph-name="x" d="M576 896q91 0 174-35.5t143-95.5 95.5-143 35.5-174-35.5-174-95.5-143-143-95.5-174-35.5v96q70.5 0 134.75 26.5t114.25 76.5 76.5 114.25 26.5 134.75-26.5 134.75-76.5 114.25-114.25 76.5-134.75 26.5-134.75-26.5-114.25-76.5q-77.5-77.5-97-185h186l-224-256-224 256h164.5q15.5 107.5 77.75 195.25t158.5 138.25 207.25 50.5zM768 512v-128h-256v320h128v-192h128z" />
<glyph unicode="&#x79;" glyph-name="y" d="M512 704v-320h256v64h-192v256h-64zM576 896q-91 0-174-35.5t-143-95.5-95.5-143-35.5-174h-128l160-192 160 192h-128q0 104.5 51.5 192.75t139.75 139.75 192.75 51.5 192.75-51.5 139.75-139.75 51.5-192.75-51.5-192.75-139.75-139.75-192.75-51.5q-31 0-64 5.5v-65q31.5-4.5 64-4.5 91 0 174 35.5t143 95.5 95.5 143 35.5 174-35.5 174-95.5 143-143 95.5-174 35.5z" />
<glyph unicode="&#x7a;" glyph-name="z" d="M658.5 210.5l-210.5 211v282.5h128v-229.5l173.5-173zM512 960q-104.5 0-199.25-40.5t-163.25-109-109-163.25-40.5-199.25 40.5-199.25 109-163.25 163.25-109 199.25-40.5 199.25 40.5 163.25 109 109 163.25 40.5 199.25-40.5 199.25-109 163.25-163.25 109-199.25 40.5zM512 64q-104.5 0-192.75 51.5t-139.75 139.75-51.5 192.75 51.5 192.75 139.75 139.75 192.75 51.5 192.75-51.5 139.75-139.75 51.5-192.75-51.5-192.75-139.75-139.75-192.75-51.5z" />
<glyph unicode="&#x7b;" glyph-name="braceleft" d="M512 960q-104.5 0-199.25-40.5t-163.25-109-109-163.25-40.5-199.25 40.5-199.25 109-163.25 163.25-109 199.25-40.5 199.25 40.5 163.25 109 109 163.25 40.5 199.25-40.5 199.25-109 163.25-163.25 109-199.25 40.5zM658.5 210.5l-210.5 211v282.5h128v-229.5l173.5-173z" />
<glyph unicode="&#x7c;" glyph-name="bar" d="M768 512v-128h-320v384h128v-256h192zM512 960q-104.5 0-199.25-40.5t-163.25-109-109-163.25-40.5-199.25 40.5-199.25 109-163.25 163.25-109 199.25-40.5 199.25 40.5 163.25 109 109 163.25 40.5 199.25-40.5 199.25-109 163.25-163.25 109-199.25 40.5zM512 64q-104.5 0-192.75 51.5t-139.75 139.75-51.5 192.75 51.5 192.75 139.75 139.75 192.75 51.5 192.75-51.5 139.75-139.75 51.5-192.75-51.5-192.75-139.75-139.75-192.75-51.5z" />
<glyph unicode="&#x7d;" glyph-name="braceright" d="M512 960q-104.5 0-199.25-40.5t-163.25-109-109-163.25-40.5-199.25 40.5-199.25 109-163.25 163.25-109 199.25-40.5 199.25 40.5 163.25 109 109 163.25 40.5 199.25-40.5 199.25-109 163.25-163.25 109-199.25 40.5zM768 384h-320v384h128v-256h192v-128z" />
<glyph unicode="&#x7e;" glyph-name="asciitilde" d="M576 512h128v-128h-256v256h128v-128zM896 448q0 105-52.25 193.5t-139.75 139v179.5h-384v-179.5q-87.5-50.5-139.75-139t-52.25-193.5 52.25-193.5 139.75-139v-179.5h384v179.5q87.5 50.5 139.75 139t52.25 193.5zM512 192q-106 0-181 75t-75 181 75 181 181 75 181-75 75-181-75-181-181-75z" />
<glyph unicode="&#xe000;" glyph-name="uniE000" d="M512 832q-77 0-147-29t-124.5-83.5-83.5-124.5-29-147 29-147 83.5-124.5 124.5-83.5 147-29 147 29 124.5 83.5 83.5 124.5 29 147-29 147-83.5 124.5-124.5 83.5-147 29zM512 960q104.5 0 199.25-40.5t163.25-109 109-163.25 40.5-199.25-40.5-199.25-109-163.25-163.25-109-199.25-40.5-199.25 40.5-163.25 109-109 163.25-40.5 199.25 40.5 199.25 109 163.25 163.25 109 199.25 40.5zM623 512q-17 30-47 47v209h-128v-209q-29-17-46.5-46.5t-17.5-64.5q0-53 37.5-90.5t90.5-37.5q35 0 64.5 17.5t46.5 46.5h145v128h-145zM512 384q-26.5 0-45.25 18.75t-18.75 45.25 18.75 45.25 45.25 18.75 45.25-18.75 18.75-45.25-18.75-45.25-45.25-18.75z" />
<glyph unicode="&#xe001;" glyph-name="uniE001" d="M480 896q-97.5 0-186.5-38t-153.25-102.25-102.25-153.25-38-186.5 38-186.5 102.25-153.25 153.25-102.25 186.5-38 186.5 38 153.25 102.25 102.25 153.25 38 186.5-38 186.5-102.25 153.25-153.25 102.25-186.5 38zM480 0q-84.5 0-161.75 33t-132.75 88.5-88.5 132.75-33 161.75 33 161.75 88.5 132.75 132.75 88.5 161.75 33 161.75-33 132.75-88.5 88.5-132.75 33-161.75-33-161.75-88.5-132.75-132.75-88.5-161.75-33zM512 506.5v261.5h-64v-261.5q-28.5-10-46.25-34.75t-17.75-55.75q0-40 28-68t68-28q31 0 55.75 17.75t34.75 46.25h197.5v64h-197.5q-7 20.5-22.5 36t-36 22.5z" />
<glyph unicode="&#xe002;" glyph-name="uniE002" d="M480 896q-97.5 0-186.5-38t-153.25-102.25-102.25-153.25-38-186.5 38-186.5 102.25-153.25 153.25-102.25 186.5-38 186.5 38 153.25 102.25 102.25 153.25 38 186.5-38 186.5-102.25 153.25-153.25 102.25-186.5 38zM768 384h-197.5q-10-28.5-34.75-46.25t-55.75-17.75q-40 0-68 28t-28 68q0 31 17.75 55.75t46.25 34.75v261.5h64v-261.5q20.5-7 36-22.5t22.5-36h197.5v-64z" />
<glyph unicode="&#xe003;" glyph-name="uniE003" d="M576 410.5l109.5-109-91-91-146.5 147v218.5h128v-165.5zM832 896q79.5 0 135.75-56.25t56.25-135.75q0-48-22-89.25t-59.5-67.75q-35 92.5-105.25 162.5t-162.25 105q26.5 37.5 67.75 59.5t89.25 22zM349 814.5q-92.5-35-162.5-105t-105-162.5q-37.5 26.5-59.5 67.75t-22 89.25q0 79.5 56.25 135.75t135.75 56.25q48 0 89.25-22t67.75-59.5zM512 768q-104.5 0-192.75-51.5t-139.75-139.75-51.5-192.75q0-137 87.5-244l-23.5-204h64l64 115.5q89.5-51.5 192-51.5t192 51.5l64-115.5h64l-23.5 204q87.5 107 87.5 244 0 104.5-51.5 192.75t-139.75 139.75-192.75 51.5zM512 128q-106 0-181 75t-75 181 75 181 181 75 181-75 75-181-75-181-181-75z" />
<glyph unicode="&#xe004;" glyph-name="uniE004" d="M512 832q-91 0-174-35.5t-143-95.5-95.5-143-35.5-174 35.5-174 95.5-143 143-95.5 174-35.5 174 35.5 143 95.5 95.5 143 35.5 174-35.5 174-95.5 143-143 95.5-174 35.5zM512 24q-98 0-180.75 48.25t-131 131-48.25 180.75 48.25 180.75 131 131 180.75 48.25 180.75-48.25 131-131 48.25-180.75-48.25-180.75-131-131-180.75-48.25zM935 673q25 44 25 95 0 79.5-56.25 135.75t-135.75 56.25q-46 0-85.75-20t-66.25-54.5q98-20 180.75-75.5t138.25-137zM408 885.5q-26.5 34.5-66.25 54.5t-85.75 20q-79.5 0-135.75-56.25t-56.25-135.75q0-51 25-95 55.5 81.5 138.25 137t180.75 75.5zM448 640h64v-320h-64v320zM512 384h192v-64h-192v64z" />
<glyph unicode="&#xe005;" glyph-name="uniE005" d="M1025.5 160q0 46-8.75 83.5t-23.5 63.5-34 47.25-40.5 37.5-42.5 31.75-40.5 33-34 37.75-23.5 49.25-8.75 64.5q0 28.5-5 48-12.5 84.5-64.5 147.75t-125.5 83.75q1.5 6 1.5 12 0 25-18.75 42.75t-45.25 17.75-45.25-17.75-18.75-42.75q0-6 1.5-12-83-23.5-137.25-99.5t-56.25-174v-6q0-35.5-8.75-64.5t-23.5-49.25-34-37.75-40.5-33-42.5-31.75-40.5-37.5-34-47.25-23.5-63.5-8.75-83.5q0-37.5 52-70.5t142.75-55.25 204.25-30.25q16.5-31 46.75-49.5t66.25-18.5 66.25 18.5 46.75 49.5q113.5 8 204.25 30.25t142.75 55.25 52 70.5v0.5zM826 106q-78.5-21-186.5-30.5-4 49.5-40.75 83t-86.75 33.5-86.75-33.5-40.75-83q-108 9.5-186.5 30.5-91.5 24.5-123.5 54 32 29.5 123.5 54 136 36 314 36t314-36q91.5-24.5 123.5-54-32-29.5-123.5-54z" />
<glyph unicode="&#xe006;" glyph-name="uniE006" d="M1024 128q-79.5 0-135.75 56.25t-56.25 135.75v285q0 104.5-72.75 184.5t-183.25 100.5v70h-128v-70q-110.5-20.5-183.25-100.5t-72.75-184.5v-285q0-79.5-56.25-135.75t-135.75-56.25v-64h429.5q-8-18.5-8-37.5 0-37.5 26.5-64t64-26.5 64 26.5 26.5 64q0 19-8 37.5h429.5v64z" />
<glyph unicode="&#xe007;" glyph-name="uniE007" d="M1024 128q-79.5 0-135.75 56.25t-56.25 135.75v285q0 104.5-72.75 184.5t-183.25 100.5v70h-128v-70q-110.5-20.5-183.25-100.5t-72.75-184.5v-285q0-79.5-56.25-135.75t-135.75-56.25v-64h429.5q-8-18.5-8-37.5 0-37.5 26.5-64t64-26.5 64 26.5 26.5 64q0 19-8 37.5h429.5v64zM704 384h-128v-128h-128v128h-128v128h128v128h128v-128h128v-128z" />
<glyph unicode="&#xe008;" glyph-name="uniE008" d="M1024 128q-79.5 0-135.75 56.25t-56.25 135.75v285q0 104.5-72.75 184.5t-183.25 100.5v70h-128v-70q-110.5-20.5-183.25-100.5t-72.75-184.5v-285q0-79.5-56.25-135.75t-135.75-56.25v-64h429.5q-8-18.5-8-37.5 0-37.5 26.5-64t64-26.5 64 26.5 26.5 64q0 19-8 37.5h429.5v64zM704 384h-384v128h384v-128z" />
<glyph unicode="&#xe009;" glyph-name="uniE009" d="M1024 128q-79.5 0-135.75 56.25t-56.25 135.75v285q0 104.5-72.75 184.5t-183.25 100.5v70h-128v-70q-110.5-20.5-183.25-100.5t-72.75-184.5v-285q0-79.5-56.25-135.75t-135.75-56.25v-64h429.5q-8-18.5-8-37.5 0-37.5 26.5-64t64-26.5 64 26.5 26.5 64q0 19-8 37.5h429.5v64zM448 220l-155 205 48 48 107-77 245 217 50-50z" />
<glyph unicode="&#xe00a;" glyph-name="uniE00A" d="M1024 128q-79.5 0-135.75 56.25t-56.25 135.75v285q0 104.5-72.75 184.5t-183.25 100.5v70h-128v-70q-110.5-20.5-183.25-100.5t-72.75-184.5v-285q0-79.5-56.25-135.75t-135.75-56.25v-64h429.5q-8-18.5-8-37.5 0-37.5 26.5-64t64-26.5 64 26.5 26.5 64q0 19-8 37.5h429.5v64zM704 256h-78l-114 114-114-114h-78v78l114 114-114 114v78h78l114-114 114 114h78v-78l-114-114 114-114v-78z" />
<glyph unicode="&#xe00b;" glyph-name="uniE00B" d="M512 767v65h128v64q0 26.5-18.75 45.25t-45.25 18.75h-192q-26.5 0-45.25-18.75t-18.75-45.25v-64h128v-65q-79.5-6-150.5-41.25t-122.25-90.25-81.25-129-30-154.5q0-84.5 33-161.75t88.5-132.75 132.75-88.5 161.75-33 161.75 33 132.75 88.5 88.5 132.75 33 161.75q0 80.5-30 154.5t-81.25 129-122.25 90.25-150.5 41.25zM706.5 125.5q-45.5-45.5-104-69.5t-122.5-24-122.5 24-104 69.5-69.5 104-24 122.5 24 122.5 69.5 104q43.5 43.5 99.5 67.5t117 26l-22-314q-1.5-19 7.5-28.5t24.5-9.5 24.5 9.5 7.5 28.5l-22 314q61-2 117-26t99.5-67.5q45.5-45.5 69.5-104t24-122.5-24-122.5-69.5-104z" />
<glyph unicode="&#xe00c;" glyph-name="uniE00C" d="M0 0q0-26.5 18.75-45.25t45.25-18.75h896q26.5 0 45.25 18.75t18.75 45.25v576h-1024v-576zM704 512h256v-128h-256v128zM704 320h256v-128h-256v128zM704 128h256v-128h-256v128zM384 512h256v-128h-256v128zM384 320h256v-128h-256v128zM384 128h256v-128h-256v128zM64 512h256v-128h-256v128zM64 320h256v-128h-256v128zM64 128h256v-128h-256v128zM960 832h-128v91.5q0 15-9.5 25.75t-22.5 10.75-22.5-10.75-9.5-25.75v-91.5h-512v91.5q0 15-9.5 25.75t-22.5 10.75-22.5-10.75-9.5-25.75v-91.5h-128q-26.5 0-45.25-18.75t-18.75-45.25v-128h1024v128q0 26.5-18.75 45.25t-45.25 18.75zM224 672q-26.5 0-45.25 18.75t-18.75 45.25q0 17.5 8.75 32.25t23.25 23.25v-55.5q0-13 9.5-22.5t22.5-9.5 22.5 9.5 9.5 22.5v55.5q14.5-8.5 23.25-23.25t8.75-32.25q0-26.5-18.75-45.25t-45.25-18.75zM800 672q-26.5 0-45.25 18.75t-18.75 45.25q0 17.5 8.75 32.25t23.25 23.25v-55.5q0-13 9.5-22.5t22.5-9.5 22.5 9.5 9.5 22.5v55.5q14.5-8.5 23.25-23.25t8.75-32.25q0-26.5-18.75-45.25t-45.25-18.75z" />
<glyph unicode="&#xe00d;" glyph-name="uniE00D" d="M320 576h128v-128h-128v128zM512 576h128v-128h-128v128zM704 576h128v-128h-128v128zM128 192h128v-128h-128v128zM320 192h128v-128h-128v128zM512 192h128v-128h-128v128zM320 384h128v-128h-128v128zM512 384h128v-128h-128v128zM704 384h128v-128h-128v128zM128 384h128v-128h-128v128zM832 960v-64h-128v64h-448v-64h-128v64h-128v-1024h960v1024h-128zM896 0h-832v704h832v-704z" />
<glyph unicode="&#xe00e;" glyph-name="uniE00E" d="M128 640h64v-64h-64v64zM256 640h64v-64h-64v64zM384 640h64v-64h-64v64zM512 640h64v-64h-64v64zM640 640h64v-64h-64v64zM768 640h64v-64h-64v64zM128 512h64v-64h-64v64zM256 512h64v-64h-64v64zM384 512h64v-64h-64v64zM512 512h64v-64h-64v64zM640 512h64v-64h-64v64zM768 512h64v-64h-64v64zM128 384h64v-64h-64v64zM256 384h64v-64h-64v64zM384 384h64v-64h-64v64zM512 384h64v-64h-64v64zM640 384h64v-64h-64v64zM768 384h64v-64h-64v64zM128 256h64v-64h-64v64zM256 256h64v-64h-64v64zM384 256h64v-64h-64v64zM512 256h64v-64h-64v64zM640 256h64v-64h-64v64zM768 256h64v-64h-64v64zM128 128h64v-64h-64v64zM256 128h64v-64h-64v64zM384 128h64v-64h-64v64zM512 128h64v-64h-64v64zM640 128h64v-64h-64v64zM768 128h64v-64h-64v64zM832 896v64h-128v-128h-64v64h-320v-64h-64v128h-128v-64h-128v-960h960v960h-128zM896 0h-832v704h832v-704z" />
<glyph unicode="&#xe00f;" glyph-name="uniE00F" d="M832 768h-64v-128h-192v128h-192v-128h-192v128h-64q-26 0-45-19t-19-45v-704q0-26 19-45t45-19h704q26 0 45 19t19 45v704q0 26-19 45t-45 19zM256 0h-128v128h128v-128zM256 192h-128v128h128v-128zM256 384h-128v128h128v-128zM448 0h-128v128h128v-128zM448 192h-128v128h128v-128zM448 384h-128v128h128v-128zM640 0h-128v128h128v-128zM640 192h-128v128h128v-128zM640 384h-128v128h128v-128zM832 0h-128v128h128v-128zM832 192h-128v128h128v-128zM832 384h-128v128h128v-128zM320 832q0 13-9.5 22.5t-22.5 9.5-22.5-9.5-9.5-22.5v-128h64v128zM704 832q0 13-9.5 22.5t-22.5 9.5-22.5-9.5-9.5-22.5v-128h64v128z" />
<glyph unicode="&#xe010;" glyph-name="uniE010" d="M896 832h-96v-32q0-26.5-18.75-45.25t-45.25-18.75-45.25 18.75-18.75 45.25v32h-320v-32q0-26.5-18.75-45.25t-45.25-18.75-45.25 18.75-18.75 45.25v32h-96q-26 0-45-19t-19-45v-704q0-26 19-45t45-19h768q26 0 45 19t19 45v704q0 26-19 45t-45 19zM896 64h-768v576h768v-576zM288 768q13 0 22.5 9.5t9.5 22.5v128q0 13-9.5 22.5t-22.5 9.5-22.5-9.5-9.5-22.5v-128q0-13 9.5-22.5t22.5-9.5zM736 768q13 0 22.5 9.5t9.5 22.5v128q0 13-9.5 22.5t-22.5 9.5-22.5-9.5-9.5-22.5v-128q0-13 9.5-22.5t22.5-9.5zM576 576h-320v-64h256v-128h-256v-64h256v-128h-256v-64h320v448zM704 128h64v448h-128v-64h64v-384zM872-24h-720q-27 0-45.5 15.25t-18.5 40.75v-32q0-26 19-45t45-19h720q26 0 45 19t19 45v32q0-25.5-18.5-40.75t-45.5-15.25z" />
<glyph unicode="&#xe011;" glyph-name="uniE011" d="M1020.5 192l-25 448q-1.5 26.5-21.5 45.25t-46 18.75h-160v256h-512v-256h-160q-26 0-46-18.75t-21.5-45.25l-25-448q-1.5-26 16.25-45t44.25-19h141l-77-192h768l-77 192h141q26.5 0 44.25 19t16.25 45zM320 896h384v-192h-384v192zM222.5 0l77 192h425l77-192h-579zM896 512h-64v128h64v-128z" />
<glyph unicode="&#xe012;" glyph-name="uniE012" d="M256 896h512v-128h-512v128zM960 704h-896q-26 0-45-19t-19-45v-320q0-26 19-45t45-19h192v-256h512v256h192q26 0 45 19t19 45v320q0 26-19 45t-45 19zM704 64h-384v320h384v-320zM974.5 608q0-19-13.75-32.75t-32.75-13.75-32.75 13.75-13.75 32.75 13.75 32.75 32.75 13.75 32.75-13.75 13.75-32.75z" />
<glyph unicode="&#xe013;" glyph-name="uniE013" d="M896 384v-256h-768v256h-128v-384h1024v384h-128zM832 896h-640v-704h640v704zM704 320h-384v64h384v-64zM704 512h-384v64h384v-64zM704 704h-384v64h384v-64z" />
<glyph unicode="&#xe014;" glyph-name="uniE014" d="M640 881v-305h-256v305q-38.5-9-70.75-22.75t-60.5-34.75-44.5-51.5-16.25-68v-424q0-57 25.25-108.75t68.25-89.25 102.25-59.75 124.25-22.25 124.25 22.25 102.25 59.75 68.25 89.25 25.25 108.75v424q0 37.5-16.25 68t-44.5 51.5-60.5 34.75-70.75 22.75zM576 892q-37.5 4-64 4t-64-4v-252h128v252z" />
<glyph unicode="&#xe015;" glyph-name="uniE015" d="M795.5 323.5l-153.5 256q-26 43.5-66.75 73.5t-86.5 42.25-95.5 7-94.25-29.75q-43 77-43 127.5 0 76.5 43.5 97.5 8.5 5.5 11 7.5 9.5 9.5 9.5 22.75t-9.5 22.75q-17 17-38.5 5-38.5-19-59.25-59t-20.75-96.5q0-69.5 55-165.5-65-61-77.75-149.75t33.75-168.25l153.5-256q35.5-59 94.25-91.75t125.25-32.75q70.5 0 131.5 36.5 59.5 35.5 92.5 95.25t32 128-36.5 127.75zM472 364.5q-13.5-9-29.5-9-30.5 0-46.5 25.5l-73.5 116q-12.5 19-7.25 41t24.25 34.5 41.25 7.5 34.75-24l73.5-115.5q12.5-19 7.25-41.25t-24.25-34.75z" />
<glyph unicode="&#xe016;" glyph-name="uniE016" d="M480 896q-32 0-67-5t-75.5-18.5-72-34-52.5-55.5-21-79v-424q0-76 38.5-140.5t105-102 144.5-37.5 144.5 37.5 105 102 38.5 140.5v424q0 44-21 79t-52.5 55.5-72 34-75.5 18.5-67 5zM704 280q0-89.5-65-152-31.5-30.5-71-47-40.5-17-88-17t-88 17q-39.5 16.5-71 47-65 62.5-65 152v232h448v-232zM704 576h-192v256q67-6 120.5-32 36.5-18 53.5-40 18-24 18-56v-128z" />
<glyph unicode="&#xe017;" glyph-name="uniE017" d="M480 896q-32 0-67-5t-75.5-18.5-72-34-52.5-55.5-21-79v-424q0-76 38.5-140.5t105-102 144.5-37.5 144.5 37.5 105 102 38.5 140.5v424q0 44-21 79t-52.5 55.5-72 34-75.5 18.5-67 5zM256 704q0 32 18 56 17 22 53.5 40 53.5 26 120.5 32v-256h-192v128zM704 280q0-89.5-65-152-31.5-30.5-71-47-40.5-17-88-17t-88 17q-39.5 16.5-71 47-65 62.5-65 152v232h448v-232z" />
<glyph unicode="&#xe018;" glyph-name="uniE018" horiz-adv-x="1152" d="M1088 832h-1024q-26 0-45-19t-19-45v-640q0-26 19-45t45-19h1024q26 0 45 19t19 45v640q0 26-19 45t-45 19zM640 704h128v-128h-128v128zM832 512v-128h-128v128h128zM448 704h128v-128h-128v128zM640 512v-128h-128v128h128zM256 704h128v-128h-128v128zM448 512v-128h-128v128h128zM128 704h64v-128h-64v128zM128 512h128v-128h-128v128zM192 192h-64v128h64v-128zM768 192h-512v128h512v-128zM1024 192h-192v128h192v-128zM1024 384h-128v128h128v-128zM1024 576h-192v128h192v-128z" />
<glyph unicode="&#xe019;" glyph-name="uniE019" d="M896 704h-832q-26 0-45-19t-19-45v-448q0-26 19-45t45-19h832q26 0 45 19t19 45v448q0 26-19 45t-45 19zM896 192h-832v448h832v-448zM256 320h448v-64h-448v64zM704 448h64v-64h-64v64zM576 448h64v-64h-64v64zM448 448h64v-64h-64v64zM320 448h64v-64h-64v64zM192 448h64v-64h-64v64zM640 576h64v-64h-64v64zM768 576h64v-64h-64v64zM512 576h64v-64h-64v64zM384 576h64v-64h-64v64zM256 576h64v-64h-64v64zM128 576h64v-64h-64v64z" />
<glyph unicode="&#xe01a;" glyph-name="uniE01A" d="M0 896v-640h1024v640h-1024zM960 320h-896v512h896v-512zM672 192h-320l-32-128-64-64h512l-64 64z" />
<glyph unicode="&#xe01b;" glyph-name="uniE01B" d="M0 896v-640h1024v640h-1024zM960 320h-896v512h896v-512zM672 192h-320l-32-128-64-64h512l-64 64zM96 504h832v-16h-832v16zM96 536h832v-16h-832v16zM96 472h832v-16h-832v16zM96 568h832v-16h-832v16zM96 440h832v-16h-832v16zM96 376h832v-16h-832v16zM96 408h832v-16h-832v16zM96 760h832v-16h-832v16zM96 600h832v-16h-832v16zM96 728h832v-16h-832v16zM96 792h832v-16h-832v16zM96 632h832v-16h-832v16zM96 664h832v-16h-832v16zM96 696h832v-16h-832v16z" />
<glyph unicode="&#xe01c;" glyph-name="uniE01C" d="M96 488h570l-28 16h-542v-16zM96 520h514l-28 16h-486v-16zM96 552h458l-28 16h-430v-16zM96 584h402l-28 16h-374v-16zM96 456h626l-28 16h-598v-16zM96 424h682l-28 16h-654v-16zM96 392h738l-28 16h-710v-16zM96 776h66l-28 16h-38v-16zM96 376v-16h794l-28 16h-766zM96 744h122l-28 16h-94v-16zM96 712h178l-28 16h-150v-16zM96 648h290l-28 16h-262v-16zM96 680h234l-28 16h-206v-16zM96 616h346l-28 16h-318v-16zM0 896v-640h1024v640h-1024zM960 320h-896v512h896v-512zM672 192h-320l-32-128-64-64h512l-64 64z" />
<glyph unicode="&#xe01d;" glyph-name="uniE01D" d="M1024 128v768h-1024v-768h448v-64h-192v-64h512v64h-192v64h448zM128 768h768v-512h-768v512z" />
<glyph unicode="&#xe01e;" glyph-name="uniE01E" d="M896 256v512q0 26-19 45t-45 19h-640q-26 0-45-19t-19-45v-512h-128v-192h1024v192h-128zM640 128h-256v64h256v-64zM832 256h-640v512h640v-512z" />
<glyph unicode="&#xe01f;" glyph-name="uniE01F" d="M736 960h-448q-40 0-68-28t-28-68v-832q0-40 28-68t68-28h448q40 0 68 28t28 68v832q0 40-28 68t-68 28zM384 912h256v-32h-256v32zM512 0q-26.5 0-45.25 18.75t-18.75 45.25 18.75 45.25 45.25 18.75 45.25-18.75 18.75-45.25-18.75-45.25-45.25-18.75zM768 192h-512v640h512v-640z" />
<glyph unicode="&#xe020;" glyph-name="uniE020" d="M768 960h-576q-26 0-45-19t-19-45v-896q0-26 19-45t45-19h576q26 0 45 19t19 45v896q0 26-19 45t-45 19zM480-18q-20.5 0-35.25 14.75t-14.75 35.25 14.75 35.25 35.25 14.75 35.25-14.75 14.75-35.25-14.75-35.25-35.25-14.75zM768 128h-576v704h576v-704z" />
<glyph unicode="&#xe021;" glyph-name="uniE021" d="M800 960h-640q-40 0-68-28t-28-68v-832q0-40 28-68t68-28h640q40 0 68 28t28 68v832q0 40-28 68t-68 28zM480-32q-13 0-22.5 9.5t-9.5 22.5 9.5 22.5 22.5 9.5 22.5-9.5 9.5-22.5-9.5-22.5-22.5-9.5zM768 64h-576v768h576v-768z" />
<glyph unicode="&#xe022;" glyph-name="uniE022" d="M672 960q-13 0-22.5-9.5t-9.5-22.5v-96h-352q-13 0-22.5-9.5t-9.5-22.5v-832q0-13 9.5-22.5t22.5-9.5h384q13 0 22.5 9.5t9.5 22.5v960q0 13-9.5 22.5t-22.5 9.5zM384 0h-64v64h64v-64zM384 128h-64v64h64v-64zM384 256h-64v64h64v-64zM512 0h-64v64h64v-64zM512 128h-64v64h64v-64zM512 256h-64v64h64v-64zM640 0h-64v64h64v-64zM640 128h-64v64h64v-64zM640 256h-64v64h64v-64zM640 416q0-13-9.5-22.5t-22.5-9.5h-256q-13 0-22.5 9.5t-9.5 22.5v320q0 13 9.5 22.5t22.5 9.5h256q13 0 22.5-9.5t9.5-22.5v-320z" />
<glyph unicode="&#xe023;" glyph-name="uniE023" d="M981 672q-133 19.5-282 27l165 165-64 64-224.5-224.5q-21 0.5-63.5 0.5l-256 256-64-64 194-194q-176-6-343-30-43-168-43-352t43-352q224-32 469-32t469 32q43 168 43 352t-43 352zM864 85.5q-165-21.5-352-21.5t-352 21.5q-32 112.5-32 234.5t32 234.5q165 21.5 352 21.5t352-21.5q32-112.5 32-234.5t-32-234.5z" />
<glyph unicode="&#xe024;" glyph-name="uniE024" d="M704 960h-384l-192-128v-256h768v256zM640 640h-64v42.5q0 8.5-6.5 15t-15 6.5h-85q-8.5 0-15-6.5t-6.5-15v-42.5h-64v106.5q0 8.5 6.5 15t15 6.5h213q8.5 0 15-6.5t6.5-15v-106.5zM128 256h768v256h-768v-256zM384 426.5q0 8.5 6.5 15t15 6.5h213q8.5 0 15-6.5t6.5-15v-106.5h-64v42.5q0 8.5-6.5 15t-15 6.5h-85q-8.5 0-15-6.5t-6.5-15v-42.5h-64v106.5zM128-64h768v256h-768v-256zM384 106.5q0 8.5 6.5 15t15 6.5h213q8.5 0 15-6.5t6.5-15v-106.5h-64v42.5q0 8.5-6.5 15t-15 6.5h-85q-8.5 0-15-6.5t-6.5-15v-42.5h-64v106.5z" />
<glyph unicode="&#xe025;" glyph-name="uniE025" horiz-adv-x="1088" d="M256 896h-192q-26 0-45-19t-19-45v-768q0-26 19-45t45-19h192q26 0 45 19t19 45v768q0 26-19 45t-45 19zM192 152q0-10-7-17t-17-7h-16q-10 0-17 7t-7 17v16q0 10 7 17t17 7h16q10 0 17-7t7-17v-16zM256 320h-192v320h192v-320zM256 704h-192v64h192v-64zM640 896h-192q-26 0-45-19t-19-45v-768q0-26 19-45t45-19h192q26 0 45 19t19 45v768q0 26-19 45t-45 19zM576 152q0-10-7-17t-17-7h-16q-10 0-17 7t-7 17v16q0 10 7 17t17 7h16q10 0 17-7t7-17v-16zM640 320h-192v320h192v-320zM640 704h-192v64h192v-64zM1024 896h-192q-26 0-45-19t-19-45v-768q0-26 19-45t45-19h192q26 0 45 19t19 45v768q0 26-19 45t-45 19zM960 152q0-10-7-17t-17-7h-16q-10 0-17 7t-7 17v16q0 10 7 17t17 7h16q10 0 17-7t7-17v-16zM1024 320h-192v320h192v-320zM1024 704h-192v64h192v-64z" />
<glyph unicode="&#xe026;" glyph-name="uniE026" d="M704 768h-384l-320-384v-256q0-26.5 18.75-45.25t45.25-18.75h896q26.5 0 45.25 18.75t18.75 45.25v256zM768 384l-128-128h-256l-128 128h-172.5l266.5 320h324l266.5-320h-172.5z" />
<glyph unicode="&#xe027;" glyph-name="uniE027" d="M704 768h-384l-320-384v-256q0-26.5 18.75-45.25t45.25-18.75h896q26.5 0 45.25 18.75t18.75 45.25v256zM640 256h-256l-64 64h384zM83.5 384l266.5 320h324l266.5-320h-857zM285 576h454l-53.5 64h-347zM178.5 448h667l-53 64h-561z" />
<glyph unicode="&#xe028;" glyph-name="uniE028" d="M898.5 960l67-571.5-75-9-60.5 510.5h-636l-60.5-510.5-75 9 67 571.5h773zM256 832h512v-64h-512v64zM256 704h512v-64h-512v64zM256 576h512v-64h-512v64zM256 448h512v-64h-512v64zM992 320h-960q-13 0-19.5-9t-2.5-21.5l108-323q4-12.5 16.5-21.5t25.5-9h704q13 0 25.5 9t16.5 21.5l108 323q4 12.5-2.5 21.5t-19.5 9zM640 192h-256v64h256v-64z" />
<glyph unicode="&#xe029;" glyph-name="uniE029" d="M64 832h896v-128h-896v128zM128 64h768v576h-768v-576zM384 576h256v-64h-256v64z" />
<glyph unicode="&#xe02a;" glyph-name="uniE02A" d="M832 896h-640l-192-192v-672q0-13 9.5-22.5t22.5-9.5h960q13 0 22.5 9.5t9.5 22.5v672zM512 128l-320 256h192v192h256v-192h192zM154.5 768l64 64h587l64-64h-715z" />
<glyph unicode="&#xe02b;" glyph-name="uniE02B" d="M832 896h-640l-192-192v-672q0-13 9.5-22.5t22.5-9.5h960q13 0 22.5 9.5t9.5 22.5v672zM640 320v-192h-256v192h-192l320 256 320-256h-192zM154.5 768l64 64h587l64-64h-715z" />
<glyph unicode="&#xe02c;" glyph-name="uniE02C" d="M512 384l256 256h-192v256h-128v-256h-192zM744.5 488.5l-71.5-71.5 260-97-421-157-421 157 260 97-71.5 71.5-279.5-104.5v-256l512-192 512 192v256z" />
<glyph unicode="&#xe02d;" glyph-name="uniE02D" d="M448 384h128v256h192l-256 256-256-256h192v-256zM640 528v-98.5l293-109.5-421-157-421 157 293 109.5v98.5l-384-144v-256l512-192 512 192v256z" />
<glyph unicode="&#xe02e;" glyph-name="uniE02E" d="M896 960h-896v-1024h1024v896zM512 832h128v-256h-128v256zM896 64h-768v768h64v-320h576v320h75l53-53v-715z" />
<glyph unicode="&#xe02f;" glyph-name="uniE02F" d="M512 543.5q-39.5 0-67.5-28t-28-67.5 28-67.5 67.5-28 67.5 28 28 67.5-28 67.5-67.5 28zM512 960q-104.5 0-199.25-40.5t-163.25-109-109-163.25-40.5-199.25 40.5-199.25 109-163.25 163.25-109 199.25-40.5 199.25 40.5 163.25 109 109 163.25 40.5 199.25-40.5 199.25-109 163.25-163.25 109-199.25 40.5zM879 712q-8 11-12 16 4-5 12-16zM853.5 744q-1.5 1.5-3.75 4.25t-3.25 3.75q1-1 3.25-3.75t3.75-4.25zM846 752.5q-2 2.5-7 7.5 1.5-1 3.75-3.5t3.25-4zM201 120q1.5-1 4.25-4t4.25-4q-1.5 1-4.25 4t-4.25 4zM210 112q1.5-1.5 4.5-4t4.5-4q-1.5 1.5-4.5 4t-4.5 4zM272.5 64.5q-2 1-5.75 3.5t-5.75 4h16zM287 88h-48.5q1.5-1 5.25-3.75t5.75-4.25q-14 10-30.5 24h78zM261 72q-2.5 1.5-6.5 4.5t-4.5 3.5q0.5-0.5 4.5-3.5t6.5-4.5zM307 120h-106l-8.5 8.5q-10 10-14.5 15 1.5-1.5 3.75-4t3.25-3.5h132zM170.5 152q1.5-1 3.5-3.75t3.5-4.25q-1.5 1.5-3.5 4.25t-3.5 3.75zM327 152h-156.5q-14.5 17-25.5 32 8-11 12-16h180zM347 184h-202q-14.5 21-16.5 24.5 1-1.5 2.75-4.25t2.75-4.25h223zM367 216h-226l42 26.5-16.5-10.5h210.5zM387 248h-195l45.5 28.5-20-12.5h179.5zM848 658l9.5 6h-210.5l-10-16h195l-25.5-16h-179.5l-10-16h164l10.5 6.5-39.5-24.5 3 2h-143q13-9 21-16h96.5l-25.5-16h-55q4.5-5 12.5-16h17l-12-7.5q27.5-44 27.5-96.5 0-75.5-53.25-128.75t-128.75-53.25q-52.5 0-96.5 27.5l-8.5-13.5h-164l49.5 31-23.5-15h143q-13 9-21 16h-96.5l63 39.5q-27.5 44-27.5 96.5 0 75.5 53.25 128.75t128.75 53.25q52.5 0 96.5-27.5l143 229q15-10 22.5-15.5-0.5 0.5-4.5 3.5t-6.5 4.5h-16l-10-16h48.5q-1.5 1-5.5 3.75t-5.5 4.25q14-10 30.5-24h-78l-10-16h106q-1.5 1-4.25 4t-4.25 4q3-2.5 17-16.5l7.5-7.5h-132l-10-16h156.5q4.5-5 13.5-16h-180l-10-16h202q14.5-21 16.5-24.5zM805.5 792q1.5-1 4.25-4t4.25-4q-1.5 1-4.25 4t-4.25 4zM667 696l-10-16h226l12.5 7.5q-1 1.5-2.75 4.25t-2.75 4.25h-223zM345.5 344l-25.5-16h55q-4.5 5-12.5 16h-17z" />
<glyph unicode="&#xe030;" glyph-name="uniE030" d="M192 64h640q79.5 0 135.75 56.25t56.25 135.75h-1024q0-79.5 56.25-135.75t135.75-56.25zM832 192h64v-64h-64v64zM960 832h-896l-64-512h1024z" />
<glyph unicode="&#xe031;" glyph-name="uniE031" d="M832 704h-640l-192-256h1024zM0 192h1024v192h-1024v-192zM896 320h64v-64h-64v64z" />
<glyph unicode="&#xe032;" glyph-name="uniE032" d="M512 960q-139 0-257-21.5t-186.5-58.25-68.5-80.25v-128q0-43.5 68.5-80.25t186.5-58.25 257-21.5 257 21.5 186.5 58.25 68.5 80.25v128q0 43.5-68.5 80.25t-186.5 58.25-257 21.5zM510.5 448q-170 0-304.25 31.25t-183.75 80.75q-22.5-22.5-22.5-48v-128q0-43.5 68.5-80.25t186.5-58.25 257-21.5 257 21.5 186.5 58.25 68.5 80.25v128q0 23.5-24.5 48-49.5-49.5-184.25-80.75t-304.75-31.25zM510.5 160q-170 0-304.25 31.25t-183.75 80.75q-22.5-22.5-22.5-48v-128q0-43.5 68.5-80.25t186.5-58.25 257-21.5 257 21.5 186.5 58.25 68.5 80.25v128q0 23.5-24.5 48-49.5-49.5-184.25-80.75t-304.75-31.25z" />
<glyph unicode="&#xe033;" glyph-name="uniE033" d="M1024 736q0 62-58 111-43.5 36.5-115.5 62.5-142 50.5-338.5 50.5t-338.5-50.5q-72-26-115.5-62.5-58-49-58-111v-576q0-62 58-111 43.5-36.5 115.5-62.5 142-50.5 338.5-50.5t338.5 50.5q72 26 115.5 62.5 58 49 58 111v576zM231 794q118.5 38 281 38t281-38q34-11 58.25-24t33-20.75 11.25-13.25q-2.5-5.5-11.25-13.25t-33-20.75-58.25-24q-118.5-38-281-38t-281 38q-34 11-58.25 24t-33 20.75-11.25 13.25q2.5 5.5 11.25 13.25t33 20.75 58.25 24zM793 102q-118.5-38-281-38t-281 38q-34 11-58.25 24t-33 20.75-11.25 13.25h-0.5v133q19.5-9 45.5-18.5 142-50.5 338.5-50.5t338.5 50.5q27 10 45 18.5v-133q-2.5-5.5-11.25-13.25t-33-20.75-58.25-24zM793 390q-118.5-38-281-38t-281 38q-34 11-58.25 24t-33 20.75-11.25 13.25h-0.5v133q19.5-9 45.5-18.5 142-50.5 338.5-50.5t338.5 50.5q27 10 45 18.5v-133q-2.5-5.5-11.25-13.25t-33-20.75-58.25-24z" />
<glyph unicode="&#xe034;" glyph-name="uniE034" d="M512 960q-139 0-257-25.75t-186.5-70-68.5-96.25v-640q0-52 68.5-96.25t186.5-70 257-25.75 257 25.75 186.5 70 68.5 96.25v640q0 52-68.5 96.25t-186.5 70-257 25.75zM960 128q0-3-2.75-8t-10.25-13-19-16.5-31.5-18.75-45-19.75q-64-24-150-37.5-91.5-14.5-189.5-14.5t-189.5 14.5q-86 13.5-150 37.5-25 9.5-45 19.75t-31.5 18.75-19 16.5-10.25 13-2.75 8v227q67-45 186.25-72t261.75-27 261.75 27 186.25 72v-227zM960 448q0-3-2.75-8t-10.25-13-19-16.5-31.5-18.75-45-19.75q-64-24-150-37.5-91.5-14.5-189.5-14.5t-189.5 14.5q-86 13.5-150 37.5-25 9.5-45 19.75t-31.5 18.75-19 16.5-10.25 13-2.75 8v227q67-45 186.25-72t261.75-27 261.75 27 186.25 72v-227zM880.5 704q-10.5-5-29-12-64-24-150-37.5-91.5-14.5-189.5-14.5t-189.5 14.5q-86 13.5-150 37.5-18.5 7-29 12-29 13.5-48.5 27.75t-25.25 22.75-5.75 13.5q0 3 2.75 8t10.25 13 19 16.5 31.5 18.75 45 19.75q64 24 150 37.5 91.5 14.5 189.5 14.5t189.5-14.5q86-13.5 150-37.5 25-9.5 45-19.75t31.5-18.75 19-16.5 10.25-13 2.75-8q0-5-5.75-13.5t-25.25-22.75-48.5-27.75z" />
<glyph unicode="&#xe035;" glyph-name="uniE035" d="M512 896q-104 0-197.5-39.5t-164.5-110.5l-150 150v-384h384l-143.5 143.5q53 53 123.25 82.75t148.25 29.75q104.5 0 192.75-51.5t139.75-139.75 51.5-192.75q0-84.5-34.5-159.25t-95.5-128.75l84.5-96q81.5 72 127.5 171.75t46 212.25q0 104.5-40.5 199.25t-109 163.25-163.25 109-199.25 40.5z" />
<glyph unicode="&#xe036;" glyph-name="uniE036" d="M0 384q0-112.5 46-212.25t127.5-171.75l84.5 96q-61 54-95.5 128.75t-34.5 159.25q0 104.5 51.5 192.75t139.75 139.75 192.75 51.5q78 0 148.25-29.75t123.25-82.75l-143.5-143.5h384v384l-150-150q-71 71-164.5 110.5t-197.5 39.5q-104.5 0-199.25-40.5t-163.25-109-109-163.25-40.5-199.25z" />
<glyph unicode="&#xe037;" glyph-name="uniE037" d="M128 384q0 91 35.5 174t95.5 143 143 95.5 174 35.5 174-35.5 143-95.5 95.5-143 35.5-174q0-128-66.25-234.5t-176.25-163.5q81.5 50.5 130 139.25t48.5 194.75q0 78-27.75 149.25t-75 122.5-112.5 81.75-136.75 30.5q-85.5 0-160.25-42t-123.75-115-63-163h123l-192-224-192 224h128z" />
<glyph unicode="&#xe038;" glyph-name="uniE038" d="M896 384q0 91-35.5 174t-95.5 143-143 95.5-174 35.5-174-35.5-143-95.5-95.5-143-35.5-174q0-128 66.25-234.5t176.25-163.5q-81.5 50.5-130 139.25t-48.5 194.75q0 78 27.75 149.25t75 122.5 112.5 81.75 136.75 30.5q85.5 0 160.25-42t123.75-115 63-163h-123l192-224 192 224h-128z" />
<glyph unicode="&#xe039;" glyph-name="uniE039" d="M0 576h1024v384zM1024 0v384h-1024z" />
<glyph unicode="&#xe03a;" glyph-name="uniE03A" d="M576 960v-1024h384zM0-64h384v1024z" />
<glyph unicode="&#xe03b;" glyph-name="uniE03B" d="M704 704v256h-704v-704h256v-320h768v768h-320zM640 632h-320v8h320v-8zM896 568h-192v8h192v-8zM320 328h320v-8h-320v8zM128 392h128v-8h-128v8zM256 584v-16h-128v16h128zM128 600v16h128v-16h-128zM256 552v-16h-128v16h128zM320 440v16h320v-16h-320zM640 424v-16h-320v16h320zM320 472v16h320v-16h-320zM320 504v16h320v-16h-320zM320 536v16h320v-16h-320zM256 520v-16h-128v16h128zM256 488v-16h-128v16h128zM256 456v-16h-128v16h128zM256 424v-16h-128v16h128zM320 392h320v-16h-320v16zM640 360v-16h-320v16h320zM384 64v8h512v-8h-512zM384 88v16h512v-16h-512zM384 120v16h512v-16h-512zM384 152v16h512v-16h-512zM384 184v16h512v-16h-512zM384 216v16h512v-16h-512zM384 248v8h320v8h192v-16h-512zM704 280v16h192v-16h-192zM704 312v16h192v-16h-192zM704 344v16h192v-16h-192zM704 376v16h192v-16h-192zM704 408v16h192v-16h-192zM704 440v16h192v-16h-192zM704 472v16h192v-16h-192zM704 504v16h192v-16h-192zM704 536v16h192v-16h-192zM640 568h-320v16h320v-16zM320 600v16h320v-16h-320zM256 632h-128v16h128v-16zM576 832v-8h-448v8h448zM576 808v-16h-448v16h448zM576 776v-16h-448v16h448zM576 744v-16h-448v16h448zM576 712v-8h-320v-8h-128v16h448zM256 680v-16h-128v16h128z" />
<glyph unicode="&#xe03c;" glyph-name="uniE03C" d="M704 640v320h-704v-704h320v-320h704v704h-320zM576 704h-320v-8h-128v16h448v-8zM128 384v8h128v-8h-128zM128 408v16h128v-16h-128zM128 440v16h128v-16h-128zM128 472v16h128v-16h-128zM128 504v16h128v-16h-128zM128 536v16h128v-16h-128zM128 568v16h128v-16h-128zM128 600v16h128v-16h-128zM128 632v16h128v-16h-128zM128 664v16h128v-16h-128zM576 728h-448v16h448v-16zM576 760h-448v16h448v-16zM576 792h-448v16h448v-16zM576 824h-448v8h448v-8zM960 0h-576v576h576v-576z" />
<glyph unicode="&#xe03d;" glyph-name="uniE03D" d="M704 704v256h-704v-704h256v-320h768v768h-320zM640 568h-256v8h256v-8zM640 320h-256v8h256v-8zM640 344h-256v16h256v-16zM640 376h-256v16h256v-16zM640 408h-256v16h256v-16zM640 440h-256v16h256v-16zM640 472h-256v16h256v-16zM640 504h-256v16h256v-16zM640 536h-256v16h256v-16zM256 320h-192v576h576v-192h-384v-384zM960 0h-640v192h448v448h192v-640z" />
<glyph unicode="&#xe03e;" glyph-name="uniE03E" d="M704 704v256h-704v-704h256v-320h768v768h-320zM896 568h-192v8h192v-8zM384 64v8h512v-8h-512zM384 88v16h512v-16h-512zM384 120v16h512v-16h-512zM384 152v16h512v-16h-512zM384 184v16h512v-16h-512zM384 216v16h512v-16h-512zM384 248v8h320v8h192v-16h-512zM704 280v16h192v-16h-192zM704 312v16h192v-16h-192zM704 344v16h192v-16h-192zM704 376v16h192v-16h-192zM704 408v16h192v-16h-192zM704 440v16h192v-16h-192zM704 472v16h192v-16h-192zM704 504v16h192v-16h-192zM704 536v16h192v-16h-192zM576 704h-320v-8h-128v16h448v-8zM128 384v8h128v-8h-128zM128 408v16h128v-16h-128zM128 440v16h128v-16h-128zM128 472v16h128v-16h-128zM128 504v16h128v-16h-128zM128 536v16h128v-16h-128zM128 568v16h128v-16h-128zM128 600v16h128v-16h-128zM128 632v16h128v-16h-128zM128 664v16h128v-16h-128zM576 728h-448v16h448v-16zM576 760h-448v16h448v-16zM576 792h-448v16h448v-16zM576 824h-448v8h448v-8zM320 640h320v-320h-320v320z" />
<glyph unicode="&#xe03f;" glyph-name="uniE03F" d="M896 320h-576v-128h576v128zM960 384v-256h-704v256h704zM64 960h128v-1024h-128v1024zM256 768h448v-256h-448v256z" />
<glyph unicode="&#xe040;" glyph-name="uniE040" d="M896 384h-320v128h192v256h-192v192h-128v-192h-192v-256h192v-128h-320v-256h320v-192h128v192h320v256zM832 192h-640v128h640v-128z" />
<glyph unicode="&#xe041;" glyph-name="uniE041" d="M128 320h576v-128h-576v128zM64 384v-256h704v256h-704zM960 960h-128v-1024h128v1024zM768 768h-448v-256h448v256z" />
<glyph unicode="&#xe042;" glyph-name="uniE042" d="M384 64v576h-128v-576h128zM448 0h-256v704h256v-704zM1024 896v-128h-1024v128h1024zM832 704v-448h-256v448h256z" />
<glyph unicode="&#xe043;" glyph-name="uniE043" d="M448 64v320h128v-192h256v192h192v128h-192v192h-256v-192h-128v320h-256v-320h-192v-128h192v-320h256zM256 128v640h128v-640h-128z" />
<glyph unicode="&#xe044;" glyph-name="uniE044" d="M384 832v-576h-128v576h128zM448 896h-256v-704h256v704zM1024 0v128h-1024v-128h1024zM832 192v448h-256v-448h256z" />
<glyph unicode="&#xe045;" glyph-name="uniE045" d="M762-64q25 45.5 42 93.75t23.25 99.25-0.25 97.5-32.25 88-68.75 71.25-114 46-164 14.25v-254l-384 384 384 384v-248.5q97.5 2.5 178.25-17t136.25-55.5 93.75-86.75 54.75-109.5 15.75-124.5-20-131-56-130.25-88.75-121z" />
<glyph unicode="&#xe046;" glyph-name="uniE046" d="M576 711.5v248.5l384-384-384-384v254q-93 2-164-14.25t-114-46-68.75-71.25-32.25-88-0.25-97.5 23.25-99.25 42-93.75q-52 56-88.75 121t-56 130.25-20 131 15.75 124.5 54.75 109.5 93.75 86.75 136.25 55.5 178.25 17z" />
<glyph unicode="&#xe047;" glyph-name="uniE047" d="M262 960q-25-45.5-42-93.75t-23.25-99.25 0.25-97.5 32.25-88 68.75-71.25 114-46 164-14.25v254l384-384-384-384v248.5q-97.5-2.5-178.25 17t-136.25 55.5-93.75 86.75-54.75 109.5-15.75 124.5 20 131 56 130.25 88.75 121z" />
<glyph unicode="&#xe048;" glyph-name="uniE048" d="M448 184.5v-248.5l-384 384 384 384v-254q93-2 164 14.25t114 46 68.75 71.25 32.25 88 0.25 97.5-23.25 99.25-42 93.75q52-56 88.75-121t56-130.25 20-131-15.75-124.5-54.75-109.5-93.75-86.75-136.25-55.5-178.25-17z" />
<glyph unicode="&#xe049;" glyph-name="uniE049" d="M859 960q25.5-46.5 43.75-93.75t27.75-99 6-97.75-26-87.75-62.75-71.5-109.5-46-162.25-14.25v254l-384-384 384-384v248.5q82 0 152 21t120.75 57.5 87.5 87 54.75 108.5 19.5 123-14.25 129.25-50.75 128.75-86.5 120.5zM384 613.5v90.5l-384-384 384-384v90.5l-293.5 293.5z" />
<glyph unicode="&#xe04a;" glyph-name="uniE04A" d="M512 896q104.5 0 199.25-33t163.25-88.5 109-132.75 40.5-161.75-40.5-161.75-109-132.75-163.25-88.5-199.25-33q-43 0-80 5-39.5-39.5-84.75-66.25t-94.25-40.25-92.25-19-96.75-7v27q55 27 91.5 70.75t36.5 93.75q0 16-2 28.5-88.5 58.5-139.25 143t-50.75 180.5q0 84.5 40.5 161.75t109 132.75 163.25 88.5 199.25 33z" />
<glyph unicode="&#xe04b;" glyph-name="uniE04B" horiz-adv-x="1152" d="M1088 59q0-33.5 17.5-61.5t46.5-43v-16q-14-2-32.5-2-50 0-94.5 19.75t-78 54.75q-41-11-83-11-78 0-144.5 34.25t-105 93.25-38.5 128.5 38.5 128.5 105 93.25 144.5 34.25 144.5-34.25 105-93.25 38.5-128.5q0-81.5-53.5-148.5-10.5-22.5-10.5-48.5zM512 960q102.5 0 196.25-32t162-86.25 109.75-129.25 44-158q-74.5 33.5-160 33.5-71.5 0-137-24.25t-117-69.75q-53-47-81.5-108.5t-28.5-129.5q0-67 27.5-128h-15.5q-43 0-80 5-39.5-39.5-84.75-66.25t-94.25-40.25-92.25-19-96.75-7v27q55 27 91.5 70.75t36.5 93.75q0 16-2 28.5-88.5 58.5-139.25 143t-50.75 180.5q0 84.5 40.5 161.75t109 132.75 163.25 88.5 199.25 33z" />
<glyph unicode="&#xe04c;" glyph-name="uniE04C" horiz-adv-x="1152" d="M480 960q78 0 151.25-19.5t132.25-55.5 103.5-83.75 68.75-107 24.25-122.75-24.25-122.75-68.75-107-103.5-83.75-132.25-55.5-151.25-19.5q-34 0-75 5-37-37-78.75-62t-86.75-37.75-85.5-18-90-6.25v25q51 25 83.5 66t32.5 88q0 15-2 26.5-83 54.5-130.5 133.25t-47.5 168.75q0 63.5 24.25 122.75t68.75 107 103.5 83.75 132.25 55.5 151.25 19.5zM996 89.5q0-41.5 24.75-76.5t67.25-55.5v-21.5q-89.5 2-157.5 23.75t-129.5 82.25q-33.5-4-65-4-142.5 0-253.5 69 108.5 0.5 207.75 34.25t176.75 96.75q79.5 65 122.5 147 46.5 88.5 46.5 186.5 0 15.5-1.5 31 55.5-46 86.5-105.75t31-125.75q0-77-41-144.5t-113-114q-2-15-2-23z" />
<glyph unicode="&#xe04d;" glyph-name="uniE04D" d="M512 768q-83 0-157.5-25.5-70-24-124-67.5-49.5-40.5-76-90.75t-26.5-104.25q0-59.5 33.5-116 36-59.5 98.5-100.5 48-31.5 56.5-88 2.5-16 3.5-36 7.5 6 21.5 20 37.5 37.5 90.5 37.5 5.5 0 16.5-1 33.5-4 63.5-4 83 0 157.5 25.5 70 24 124 67.5 49.5 40.5 76 90.75t26.5 104.25-26.5 104.25-76 90.75q-54 43.5-124 67.5-74 25.5-157.5 25.5zM512 896q104.5 0 199.25-33t163.25-88.5 109-132.75 40.5-161.75-40.5-161.75-109-132.75-163.25-88.5-199.25-33q-43 0-80 5-39.5-39.5-84.75-66.25t-94.25-40.25-92.25-19-96.75-7v27q55 27 91.5 70.75t36.5 93.75q0 16-2 28.5-88.5 58.5-139.25 143t-50.75 180.5q0 84.5 40.5 161.75t109 132.75 163.25 88.5 199.25 33z" />
<glyph unicode="&#xe04e;" glyph-name="uniE04E" horiz-adv-x="1152" d="M1088 59q0-33.5 17.5-61.5t46.5-43v-16q-14-2-32.5-2-50 0-94.5 19.75t-78 54.75q-41-11-83-11-78 0-144.5 34.25t-105 93.25-38.5 128.5 38.5 128.5 105 93.25 144.5 34.25 144.5-34.25 105-93.25 38.5-128.5q0-81.5-53.5-148.5-10.5-22.5-10.5-48.5zM230.5 739q-49.5-40.5-76-90.75t-26.5-104.25q0-59.5 33.5-116 36-59.5 98.5-100.5 48-31.5 56.5-88 2.5-16 3.5-36 7.5 6 21.5 20 37.5 37.5 90.5 37.5 5.5 0 16.5-1 33.5-4 63.5-4v-128q-43 0-80 5-39.5-39.5-84.75-66.25t-94.25-40.25-92.25-19-96.75-7v27q55 27 91.5 70.75t36.5 93.75q0 16-2 28.5-88.5 58.5-139.25 143t-50.75 180.5q0 84.5 40.5 161.75t109 132.75 163.25 88.5 199.25 33q102.5 0 196.25-32t162-86.25 109.75-129.25 44-158q-62 28-132.5 32.5-18 87-98 152-54 43.5-124 67.5-74.5 25.5-157.5 25.5t-157.5-25.5q-70-24-124-67.5z" />
<glyph unicode="&#xe04f;" glyph-name="uniE04F" horiz-adv-x="1152" d="M480 832q-76 0-145.5-23.5-62-21-113.5-62-45-36.5-69-81.5t-24-93.5q0-54.5 30-104 31.5-53 90-91 48-31.5 56.5-88 1-6 2-18 1.5 1.5 4.5 4.25t4 3.75q37.5 37.5 90 37.5 5.5 0 16.5-1 31-4 58.5-4 76 0 145.5 23.5 62 21 113.5 62 45 36.5 69 81.5t24 93.5-24 93.5-69 81.5q-51.5 41-113.5 62-69.5 23.5-145.5 23.5zM480 960q78 0 151.25-19.5t132.25-55.5 103.5-83.75 68.75-107 24.25-122.75-24.25-122.75-68.75-107-103.5-83.75-132.25-55.5-151.25-19.5q-34 0-75 5-37-37-78.75-62t-86.75-37.75-85.5-18-90-6.25v25q51 25 83.5 66t32.5 88q0 15-2 26.5-83 54.5-130.5 133.25t-47.5 168.75q0 63.5 24.25 122.75t68.75 107 103.5 83.75 132.25 55.5 151.25 19.5zM996 89.5q0-41.5 24.75-76.5t67.25-55.5v-21.5q-89.5 2-157.5 23.75t-129.5 82.25q-33.5-4-65-4-142.5 0-253.5 69 108.5 0.5 207.75 34.25t176.75 96.75q79.5 65 122.5 147 46.5 88.5 46.5 186.5 0 15.5-1.5 31 55.5-46 86.5-105.75t31-125.75q0-77-41-144.5t-113-114q-2-15-2-23z" />
<glyph unicode="&#xe050;" glyph-name="uniE050" d="M512 960q-104.5 0-199.25-33t-163.25-88.5-109-132.75-40.5-161.75q0-96 50.75-180.5t139.25-143q2-12.5 2-28.5 0-50-36.5-93.75t-91.5-70.75v-27q53.5 1.5 96.75 7t92.25 19 94.25 40.25 84.75 66.25q37-5 80-5 104.5 0 199.25 33t163.25 88.5 109 132.75 40.5 161.75-40.5 161.75-109 132.75-163.25 88.5-199.25 33zM576 320h-128v128h128v-128zM576 576h-128v256h128v-256z" />
<glyph unicode="&#xe051;" glyph-name="uniE051" horiz-adv-x="1152" d="M768 960q53 0 90.5-37.5t37.5-90.5v-320q0-53-37.5-90.5t-90.5-37.5h-576l-192-192v640q0 53 37.5 90.5t90.5 37.5h640zM1024 768q53 0 90.5-37.5t37.5-90.5v-704l-192 192h-576q-53 0-90.5 37.5t-37.5 90.5v64h128v-64h640v384h-64v128h64z" />
<glyph unicode="&#xe052;" glyph-name="uniE052" horiz-adv-x="1152" d="M1024 768q53 0 90.5-37.5t37.5-90.5v-704l-192 192h-576q-53 0-90.5 37.5t-37.5 90.5v64h128v-64h640v384h-64v128h64zM768 960h-640q-53 0-90.5-37.5t-37.5-90.5v-640l192 192h576q53 0 90.5 37.5t37.5 90.5v320q0 53-37.5 90.5t-90.5 37.5zM768 512h-640v320h640v-320z" />
<glyph unicode="&#xe053;" glyph-name="uniE053" d="M836 896q77.5 0 132.75-55.25t55.25-132.75v-328q0-77.5-55.25-132.75t-132.75-55.25h-644l-192-192v708q0 77.5 55.25 132.75t132.75 55.25h648z" />
<glyph unicode="&#xe054;" glyph-name="uniE054" d="M836 896h-648q-77.5 0-132.75-55.25t-55.25-132.75v-708l192 192h644q77.5 0 132.75 55.25t55.25 132.75v328q0 77.5-55.25 132.75t-132.75 55.25zM320 448q-26.5 0-45.25 18.75t-18.75 45.25 18.75 45.25 45.25 18.75 45.25-18.75 18.75-45.25-18.75-45.25-45.25-18.75zM512 448q-26.5 0-45.25 18.75t-18.75 45.25 18.75 45.25 45.25 18.75 45.25-18.75 18.75-45.25-18.75-45.25-45.25-18.75zM704 448q-26.5 0-45.25 18.75t-18.75 45.25 18.75 45.25 45.25 18.75 45.25-18.75 18.75-45.25-18.75-45.25-45.25-18.75z" />
<glyph unicode="&#xe055;" glyph-name="uniE055" d="M836 896h-648q-77.5 0-132.75-55.25t-55.25-132.75v-708l192 192h644q77.5 0 132.75 55.25t55.25 132.75v328q0 77.5-55.25 132.75t-132.75 55.25zM640 448h-384v64h384v-64zM768 576h-512v64h512v-64z" />
<glyph unicode="&#xe056;" glyph-name="uniE056" d="M836 896h-648q-77.5 0-132.75-55.25t-55.25-132.75v-708l192 192h644q77.5 0 132.75 55.25t55.25 132.75v328q0 77.5-55.25 132.75t-132.75 55.25zM896 380q0-24.5-17.75-42.25t-42.25-17.75h-708v388q0 24.5 17.75 42.25t42.25 17.75h648q24.5 0 42.25-17.75t17.75-42.25v-328z" />
<glyph unicode="&#xe057;" glyph-name="uniE057" d="M836 896h-648q-77.5 0-132.75-55.25t-55.25-132.75v-708l192 192h644q77.5 0 132.75 55.25t55.25 132.75v328q0 77.5-55.25 132.75t-132.75 55.25zM896 380q0-24.5-17.75-42.25t-42.25-17.75h-708v388q0 24.5 17.75 42.25t42.25 17.75h648q24.5 0 42.25-17.75t17.75-42.25v-328zM256 512q0 26.5 18.75 45.25t45.25 18.75 45.25-18.75 18.75-45.25-18.75-45.25-45.25-18.75-45.25 18.75-18.75 45.25zM448 512q0 26.5 18.75 45.25t45.25 18.75 45.25-18.75 18.75-45.25-18.75-45.25-45.25-18.75-45.25 18.75-18.75 45.25zM640 512q0 26.5 18.75 45.25t45.25 18.75 45.25-18.75 18.75-45.25-18.75-45.25-45.25-18.75-45.25 18.75-18.75 45.25z" />
<glyph unicode="&#xe058;" glyph-name="uniE058" d="M836 896h-648q-77.5 0-132.75-55.25t-55.25-132.75v-708l192 192h644q77.5 0 132.75 55.25t55.25 132.75v328q0 77.5-55.25 132.75t-132.75 55.25zM896 380q0-24.5-17.75-42.25t-42.25-17.75h-708v388q0 24.5 17.75 42.25t42.25 17.75h648q24.5 0 42.25-17.75t17.75-42.25v-328zM256 640h512v-64h-512v64zM256 512h384v-64h-384v64z" />
<glyph unicode="&#xe059;" glyph-name="uniE059" d="M836 896h-648q-77.5 0-132.75-55.25t-55.25-132.75v-708l192 192h644q77.5 0 132.75 55.25t55.25 132.75v328q0 77.5-55.25 132.75t-132.75 55.25zM896 708v-12h-768v16h768v-4zM896 376h-768v16h768v-16zM128 320v8h737.5q-14.5-8-29.5-8h-708zM128 344v16h764.5q-2-6-9-16h-755.5zM128 408v16h768v-16h-768zM128 440v16h768v-16h-768zM128 472v16h768v-16h-768zM128 504v16h768v-16h-768zM128 536v16h768v-16h-768zM128 568v16h768v-16h-768zM128 600v16h768v-16h-768zM128 632v16h768v-16h-768zM128 664v16h768v-16h-768zM836 768q15 0 29.5-8h-707q14.5 8 29.5 8h648zM883.5 744q7-10 9-16h-761q2 6 9 16h743z" />
<glyph unicode="&#xe05a;" glyph-name="uniE05A" d="M928 960q40 0 68-28t28-68v-640q0-40-28-68t-68-28h-283.5l-164.5-192-164.5 192h-219.5q-40 0-68 28t-28 68v640q0 40 28 68t68 28h832z" />
<glyph unicode="&#xe05b;" glyph-name="uniE05B" d="M928 768q40 0 68-28t28-68v-448q0-40-28-68t-68-28h-155.5l-164.5-192-164.5 192h-155.5q-40 0-68 28t-28 68v448q0 40 28 68t68 28h640zM128 832v-512h-32q-40 0-68 28t-28 68v448q0 40 28 68t68 28h640q40 0 68-28t28-68v-32h-704z" />
<glyph unicode="&#xe05c;" glyph-name="uniE05C" d="M928 960h-832q-40 0-68-28t-28-68v-640q0-40 28-68t68-28h219.5l164.5-192 164.5 192h283.5q40 0 68 28t28 68v640q0 40-28 68t-68 28zM896 256h-278.5l-137.5-155.5-137.5 155.5h-214.5v576h768v-576z" />
<glyph unicode="&#xe05d;" glyph-name="uniE05D" d="M928 768h-640q-40 0-68-28t-28-68v-448q0-40 28-68t68-28h155.5l164.5-192 164.5 192h155.5q40 0 68 28t28 68v448q0 40-28 68t-68 28zM896 256h-150.5l-137.5-155.5-137.5 155.5h-150.5v384h576v-384zM128 832v-512h-32q-40 0-68 28t-28 68v448q0 40 28 68t68 28h640q40 0 68-28t28-68v-32h-704z" />
<glyph unicode="&#xe05e;" glyph-name="uniE05E" d="M928 896q40 0 68-28t28-68v-512q0-40-28-68t-68-28h-365l-307-256v256h-160q-40 0-68 28t-28 68v512q0 40 28 68t68 28h832z" />
<glyph unicode="&#xe05f;" glyph-name="uniE05F" d="M928 896h-832q-40 0-68-28t-28-68v-512q0-40 28-68t68-28h160v-256l307 256h365q40 0 68 28t28 68v512q0 40-28 68t-68 28zM384 448h-128v128h128v-128zM576 448h-128v128h128v-128zM768 448h-128v128h128v-128z" />
<glyph unicode="&#xe060;" glyph-name="uniE060" d="M928 896h-832q-40 0-68-28t-28-68v-512q0-40 28-68t68-28h160v-256l307 256h365q40 0 68 28t28 68v512q0 40-28 68t-68 28zM448 384h-256v64h256v-64zM704 512h-512v64h512v-64zM832 640h-640v64h640v-64z" />
<glyph unicode="&#xe061;" glyph-name="uniE061" d="M928 896h-832q-40 0-68-28t-28-68v-512q0-40 28-68t68-28h160v-256l307 256h365q40 0 68 28t28 68v512q0 40-28 68t-68 28zM896 320h-379l-197-174.5v174.5h-192v448h768v-448z" />
<glyph unicode="&#xe062;" glyph-name="uniE062" d="M256 576h128v-128h-128v128zM448 576h128v-128h-128v128zM640 576h128v-128h-128v128zM928 896h-832q-40 0-68-28t-28-68v-512q0-40 28-68t68-28h160v-256l307 256h365q40 0 68 28t28 68v512q0 40-28 68t-68 28zM896 320h-379l-197-174.5v174.5h-192v448h768v-448z" />
<glyph unicode="&#xe063;" glyph-name="uniE063" d="M192 704h640v-64h-640v64zM192 576h512v-64h-512v64zM192 448h256v-64h-256v64zM928 896h-832q-40 0-68-28t-28-68v-512q0-40 28-68t68-28h160v-256l307 256h365q40 0 68 28t28 68v512q0 40-28 68t-68 28zM896 320h-379l-197-174.5v174.5h-192v448h768v-448z" />
<glyph unicode="&#xe064;" glyph-name="uniE064" horiz-adv-x="1152" d="M800 960h-704q-40 0-68-28t-28-68v-320q0-40 28-68t68-28h32v-256l307 256h365q40 0 68 28t28 68v320q0 40-28 68t-68 28zM768 576h-379l-197-174.5v174.5h-64v256h640v-256zM1056 768q40 0 68-28t28-68v-384q0-40-28-68t-68-28h-160v-256l-307 256h-205v128h251l197-174.5v174.5h192v320h-64v128h96z" />
<glyph unicode="&#xe065;" glyph-name="uniE065" horiz-adv-x="1152" d="M800 960q40 0 68-28t28-68v-320q0-40-28-68t-68-28h-365l-307-256v256h-32q-40 0-68 28t-28 68v320q0 40 28 68t68 28h704zM1056 768q40 0 68-28t28-68v-384q0-40-28-68t-68-28h-160v-256l-307 256h-205v128h251l197-174.5v174.5h192v320h-64v128h96z" />
<glyph unicode="&#xe066;" glyph-name="uniE066" d="M512 756q52.5 0 97.5-29l-248.5-248.5q-29 45-29 97.5 0 74.5 52.75 127.25t127.25 52.75zM414.5 425l248.5 248.5q29-45 29-97.5 0-74.5-52.75-127.25t-127.25-52.75q-52.5 0-97.5 29zM928 960h-832q-40 0-68-28t-28-68v-576q0-40 28-68t68-28h160v-256l307 256h365q40 0 68 28t28 68v576q0 40-28 68t-68 28zM512 320q-106 0-181 75t-75 181 75 181 181 75 181-75 75-181-75-181-181-75z" />
<glyph unicode="&#xe067;" glyph-name="uniE067" d="M928 960h-832q-40 0-68-28t-28-68v-576q0-40 28-68t68-28h160v-256l307 256h365q40 0 68 28t28 68v576q0 40-28 68t-68 28zM448 689q-44.5-10-81.25-39.75t-59.75-73.75q4.5 0.5 13 0.5 53 0 90.5-37.5t37.5-90.5-37.5-90.5-90.5-37.5-90.5 37.5-37.5 90.5q0 65 22 125t63.5 106.5q71 80 170.5 95.5v-86zM832 689q-44.5-10-81.25-39.75t-59.75-73.75q4.5 0.5 13 0.5 53 0 90.5-37.5t37.5-90.5-37.5-90.5-90.5-37.5-90.5 37.5-37.5 90.5q0 65 22 125t63.5 106.5q71 80 170.5 95.5v-86z" />
<glyph unicode="&#xe068;" glyph-name="uniE068" d="M928 960h-832q-40 0-68-28t-28-68v-576q0-40 28-68t68-28h160v-256l307 256h365q40 0 68 28t28 68v576q0 40-28 68t-68 28zM512 831.5q53 0 90.25-37.25t37.25-90.25-37.25-90.25-90.25-37.25-90.25 37.25-37.25 90.25 37.25 90.25 90.25 37.25zM704 320h-384v64q0 53 37.5 90.5t90.5 37.5h128q53 0 90.5-37.5t37.5-90.5v-64z" />
<glyph unicode="&#xe069;" glyph-name="uniE069" d="M928 960h-832q-40 0-68-28t-28-68v-576q0-40 28-68t68-28h160v-256l307 256h365q40 0 68 28t28 68v576q0 40-28 68t-68 28zM448 357.5l-205.5 237 59 59 146.5-115 274.5 243 59-59z" />
<glyph unicode="&#xe06a;" glyph-name="uniE06A" d="M928 960h-832q-40 0-68-28t-28-68v-576q0-40 28-68t68-28h160v-256l307 256h365q40 0 68 28t28 68v576q0 40-28 68t-68 28zM832 448q0-26-15-33.5t-36 8l-141 153.5v-128q0-26-19-45t-45-19h-320q-26 0-45 19t-19 45v256q0 26 19 45t45 19h320q26 0 45-19t19-45v-128l141 153.5q21 15.5 36 8t15-33.5v-256z" />
<glyph unicode="&#xe06b;" glyph-name="uniE06B" d="M928 960h-832q-40 0-68-28t-28-68v-576q0-40 28-68t68-28h160v-256l307 256h365q40 0 68 28t28 68v576q0 40-28 68t-68 28zM448 384h-192q-53 0-90.5 37.5t-37.5 90.5v64q0 53 37.5 90.5t90.5 37.5h192v-64h-192q-26 0-45-19t-19-45v-64q0-26 19-45t45-19h192v-64zM384 512v64h256v-64h-256zM896 512q0-53-37.5-90.5t-90.5-37.5h-192v64h192q26 0 45 19t19 45v64q0 26-19 45t-45 19h-192v64h192q53 0 90.5-37.5t37.5-90.5v-64z" />
<glyph unicode="&#xe06c;" glyph-name="uniE06C" d="M512 769q53 0 91-38t38-91h-258q0 53 38 91t91 38zM928 960h-832q-40 0-68-28t-28-68v-576q0-40 28-68t68-28h160v-256l307 256h365q40 0 68 28t28 68v576q0 40-28 68t-68 28zM768 352q0-13-9.5-22.5t-22.5-9.5h-448q-13 0-22.5 9.5t-9.5 22.5v256q0 13 9.5 22.5t22.5 9.5h31q0 80 56.5 136.5t136.5 56.5 136.5-56.5 56.5-136.5h31q13 0 22.5-9.5t9.5-22.5v-256zM448 448q0 26.5 18.75 45.25t45.25 18.75 45.25-18.75 18.75-45.25-18.75-45.25-45.25-18.75-45.25 18.75-18.75 45.25z" />
<glyph unicode="&#xe06d;" glyph-name="uniE06D" d="M928 960h-832q-40 0-68-28t-28-68v-576q0-40 28-68t68-28h160v-256l307 256h365q40 0 68 28t28 68v576q0 40-28 68t-68 28zM712 276l-200 164-200-164 72.5 234.5-192.5 129.5h241.5l78.5 250.5 78.5-250.5h241.5l-192.5-129.5z" />
<glyph unicode="&#xe06e;" glyph-name="uniE06E" d="M928 960h-832q-40 0-68-28t-28-68v-576q0-40 28-68t68-28h160v-256l307 256h365q40 0 68 28t28 68v576q0 40-28 68t-68 28zM512 384q-5.5 2.5-14.75 7.25t-35.75 20.25-50.75 31.75-53.75 41-50.75 49.25-35.75 55-14.5 59.5v6.5q0 0.5 0.25 2t0.25 2q4 46.5 40.75 78t86.75 31.5q51 0 89.5-46t38.5-98q0 52 38.5 98t89.5 46q50 0 86.75-31.5t40.75-78q0-0.5 0.25-2t0.25-2v-6.5q0-29-14-59.25t-36.75-55.25-50-48.75-54.5-41.75-50-31.5-36.75-20.5z" />
<glyph unicode="&#xe06f;" glyph-name="uniE06F" d="M928 960h-832q-40 0-68-28t-28-68v-576q0-40 28-68t68-28h160v-256l307 256h365q40 0 68 28t28 68v576q0 40-28 68t-68 28zM896 640q0-53-37.5-90.5t-90.5-37.5h-448q-26 0-45 19t-19 45v64q0 26 19 45t45 19h352q13 0 22.5-9.5t9.5-22.5-9.5-22.5-22.5-9.5h-352v-64h448q26 0 45 19t19 45v64q0 26-19 45t-45 19h-512q-26 0-45-19t-19-45v-192q0-26 19-45t45-19h416q13 0 22.5-9.5t9.5-22.5-9.5-22.5-22.5-9.5h-416q-53 0-90.5 37.5t-37.5 90.5v192q0 53 37.5 90.5t90.5 37.5h512q53 0 90.5-37.5t37.5-90.5v-64z" />
<glyph unicode="&#xe070;" glyph-name="uniE070" d="M928 960h-832q-40 0-68-28t-28-68v-576q0-40 28-68t68-28h160v-256l307 256h365q40 0 68 28t28 68v576q0 40-28 68t-68 28zM704 686l-110-110 110-110v-82h-82l-110 110-110-110h-82v82l110 110-110 110v82h82l110-110 110 110h82v-82z" />
<glyph unicode="&#xe071;" glyph-name="uniE071" d="M928 960h-832q-40 0-68-28t-28-68v-576q0-40 28-68t68-28h160v-256l307 256h365q40 0 68 28t28 68v576q0 40-28 68t-68 28zM768 512h-192v-192h-128v192h-192v128h192v192h128v-192h192v-128z" />
<glyph unicode="&#xe072;" glyph-name="uniE072" d="M928 960h-832q-40 0-68-28t-28-68v-576q0-40 28-68t68-28h160v-256l307 256h365q40 0 68 28t28 68v576q0 40-28 68t-68 28zM768 512h-512v128h512v-128z" />
<glyph unicode="&#xe073;" glyph-name="uniE073" d="M928 960h-832q-40 0-68-28t-28-68v-576q0-40 28-68t68-28h160v-256l307 256h365q40 0 68 28t28 68v576q0 40-28 68t-68 28zM576 320h-128v128h128v-128zM576 576h-128v256h128v-256z" />
<glyph unicode="&#xe074;" glyph-name="uniE074" d="M928 960h-832q-40 0-68-28t-28-68v-576q0-40 28-68t68-28h160v-256l307 256h365q40 0 68 28t28 68v576q0 40-28 68t-68 28zM684 320h-344l-47.5 320h439zM768 704h-512v64h192v64h128v-64h192v-64z" />
<glyph unicode="&#xe075;" glyph-name="uniE075" d="M928 960h-832q-40 0-68-28t-28-68v-576q0-40 28-68t68-28h160v-256l307 256h365q40 0 68 28t28 68v576q0 40-28 68t-68 28zM448 832v-192h384v-128h-384v-192l-216 192q-40 35.5-40 64t40 64z" />
<glyph unicode="&#xe076;" glyph-name="uniE076" d="M928 960h-832q-40 0-68-28t-28-68v-576q0-40 28-68t68-28h160v-256l307 256h365q40 0 68 28t28 68v576q0 40-28 68t-68 28zM576 320v192h-384v128h384v192l216-192q40-35.5 40-64t-40-64z" />
<glyph unicode="&#xe077;" glyph-name="uniE077" d="M928 960h-832q-40 0-68-28t-28-68v-576q0-40 28-68t68-28h160v-256l307 256h365q40 0 68 28t28 68v576q0 40-28 68t-68 28zM576 512v-192h-128v192h-192l192 216q35.5 40 64 40t64-40l192-216h-192z" />
<glyph unicode="&#xe078;" glyph-name="uniE078" d="M928 960h-832q-40 0-68-28t-28-68v-576q0-40 28-68t68-28h160v-256l307 256h365q40 0 68 28t28 68v576q0 40-28 68t-68 28zM576 360q-35.5-40-64-40t-64 40l-192 216h192v192h128v-192h192z" />
<glyph unicode="&#xe079;" glyph-name="uniE079" d="M928 960h-832q-40 0-68-28t-28-68v-576q0-40 28-68t68-28h160v-256l307 256h365q40 0 68 28t28 68v576q0 40-28 68t-68 28zM256 320h-64v512h64v-512zM832 512h-256v-192l-216 192q-40 35.5-40 64t40 64l216 192v-192h256v-128z" />
<glyph unicode="&#xe07a;" glyph-name="uniE07A" d="M928 960h-832q-40 0-68-28t-28-68v-576q0-40 28-68t68-28h160v-256l307 256h365q40 0 68 28t28 68v576q0 40-28 68t-68 28zM664 512l-216-192v192h-256v128h256v192l216-192q40-35.5 40-64t-40-64zM832 320h-64v512h64v-512z" />
<glyph unicode="&#xe07b;" glyph-name="uniE07B" d="M928 960h-832q-40 0-68-28t-28-68v-576q0-40 28-68t68-28h160v-256l307 256h365q40 0 68 28t28 68v576q0 40-28 68t-68 28zM759.5 325q-14 64-56.5 110-46 49.5-113.25 67.25t-141.75 2.75v-185l-216 192q-40 35.5-40 64t40 64l216 192v-192q87 0 160.5-34.25t116.5-93.25 43-128.5q0-29.5-8.5-59z" />
<glyph unicode="&#xe07c;" glyph-name="uniE07C" d="M928 960h-832q-40 0-68-28t-28-68v-576q0-40 28-68t68-28h160v-256l307 256h365q40 0 68 28t28 68v576q0 40-28 68t-68 28zM728 512l-216-192v185q-74.5 15.5-142-2.5t-113.5-67.5q-42-45.5-56-110-8.5 29.5-8.5 59 0 69.5 43 128.5t116.5 93.25 160.5 34.25v192l216-192q40-35.5 40-64t-40-64z" />
<glyph unicode="&#xe07d;" glyph-name="uniE07D" d="M928 960h-832q-40 0-68-28t-28-68v-576q0-40 28-68t68-28h160v-256l307 256h365q40 0 68 28t28 68v576q0 40-28 68t-68 28zM448 512v-192l-216 192q-40 35.5-40 64t40 64l216 192v-185q74.5-15 141.75 2.75t113.25 67.25q42.5 46 56.5 110 8.5-29.5 8.5-59 0-69.5-43-128.5t-116.5-93.25-160.5-34.25z" />
<glyph unicode="&#xe07e;" glyph-name="uniE07E" d="M928 960h-832q-40 0-68-28t-28-68v-576q0-40 28-68t68-28h160v-256l307 256h365q40 0 68 28t28 68v576q0 40-28 68t-68 28zM728 512l-216-192v192q-87 0-160.5 34.25t-116.5 93.25-43 128.5q0 29.5 8.5 59 14-64.5 56-110 46-49.5 113.5-67.5t142-2.5v185l216-192q40-35.5 40-64t-40-64z" />
<glyph unicode="&#xe07f;" glyph-name="uniE07F" d="M623 257.5q-10 1.5-15.75 17.5t-6.25 31l-1 15.5q2.5 2.5 7 7.5t16.75 20.75 22 32.25 19.75 41.5 14 49q18.5 0 31.25 24t11.5 54.25-19.25 45.75q0 1.5 2 21t2.75 35.5-1.5 42.75-8.25 47.75-20 44.5-34.5 39.25-54.25 26.25-77.25 10.5-77.25-10.5-54.25-26.25-34.5-39.25-20-44.5-8.25-47.75-1.5-42.75 2.75-35.5 2-21q-18-15.5-19.25-45.75t11.5-54.25 31.25-24q4-24 13.5-48.5t20.5-42.25 21.5-31.75 17-21l7-7.5q0-7-0.75-17t-6.5-27.75-15.75-19.25q-23-3.5-62.5-18.5t-87-40.5-89.25-55.5-70-68.25-28.25-74.75h896q0 36.5-28.25 74.75t-70 68.25-89.25 55.5-87 40.5-62.5 18.5z" />
<glyph unicode="&#xe080;" glyph-name="uniE080" d="M735 154.5q-8.5 1.5-13.25 15.25t-5.75 26.75l-0.5 13q2.5 2 6.25 6.25t14 17.5 18.75 27.5 17 35.25 12 41.5q15.5 0 26.75 20.5t10 46.25-16.75 38.75q0 1 1.75 17.75t2.5 30.25-1.25 36.25-7 40.5-17 37.75-29.75 33.25-46.75 22.25-66 9-66-9-46.75-22.25-29.75-33.25-17-37.75-7-40.5-1.25-36.25 2.5-30.25 1.75-17.75q-15.5-13-16.75-38.75t10-46.25 26.75-20.5q5.5-32.5 22.5-64.5t31-48l14.5-15.5q0-6-0.75-14.75t-5.5-23.75-13.25-16.5q-25.5-4-71.25-23.25t-95.5-48-86-69-36.25-78.25h768q0 38-36.25 78.25t-86 69-95.5 48-71.25 23.25zM344 137q70.5 43.5 141.5 67.5-29.5 41.5-44 89-23.5 19-36 53-12.5 35-9 69.5 3 23.5 14 45-13 132.5 52.5 205 34.5 39 87.5 55.5-14 140.5-166.5 140.5-37 0-66-9t-46.75-22.25-29.75-33.25-17-37.75-7-40.5-1.25-36.25 2.5-30.25 1.75-17.75q-15.5-13-16.75-38.75t10-46.25 26.75-20.5q5.5-32.5 22.5-64.5t31-48l14.5-15.5q0-6-0.75-14.75t-5.5-23.75-13.25-16.5q-25.5-4-71.25-23.25t-95.5-48-86-69-36.25-78.25h329.5q4.5 3 14.5 9z" />
<glyph unicode="&#xe081;" glyph-name="uniE081" horiz-adv-x="1088" d="M436 224q0-83.5 37-160h-473v114.5q56.5 52.5 142.5 94t130.5 49q10 1.5 15.75 17.5t6.25 31l1 15.5q-2.5 2.5-7 7.5t-16.75 20.75-22 32.25-19.75 41.5-14 49q-18.5 0-31.25 24t-11.5 54.25 19.25 45.75q0 1.5-2 21t-2.75 35.5 1.5 42.75 8.25 47.75 20 44.5 34.5 39.25 54.25 26.25 77.25 10.5 77.25-10.5 54.25-26.25 34.5-39.25 20-44.5 8.25-47.75 1.5-42.75-2.75-35.5-2-21q18-15.5 19.25-45.75t-11.5-54.25-31.25-24q-6.5-36.5-23.5-71-32-36-52.5-76l-3.5-4q0.5-1 0.5-3-36.5-76-36.5-158.5zM800 512q-58.5 0-111.75-22.75t-92-61.5-61.5-92-22.75-111.75 22.75-111.75 61.5-92 92-61.5 111.75-22.75 111.75 22.75 92 61.5 61.5 92 22.75 111.75-22.75 111.75-61.5 92-92 61.5-111.75 22.75zM960 192h-128v-128h-64v128h-128v64h128v128h64v-128h128v-64z" />
<glyph unicode="&#xe082;" glyph-name="uniE082" d="M896 384v128h-128v-128h-128v-128h128v-128h128v128h128v128h-128zM768 114.5q-56.5 52.5-142.5 94t-130.5 49q-10 1.5-15.75 17.5t-6.25 31l-1 15.5q2.5 2.5 7 7.5t16.75 20.75 22 32.25 19.75 41.5 14 49q18.5 0 31.25 24t11.5 54.25-19.25 45.75q0 1.5 2 21t2.75 35.5-1.5 42.75-8.25 47.75-20 44.5-34.5 39.25-54.25 26.25-77.25 10.5-77.25-10.5-54.25-26.25-34.5-39.25-20-44.5-8.25-47.75-1.5-42.75 2.75-35.5 2-21q-18-15.5-19.25-45.75t11.5-54.25 31.25-24q4-24 13.5-48.5t20.5-42.25 21.5-31.75 17-21l7-7.5q0-7-0.75-17t-6.5-27.75-15.75-19.25q-44.5-7.5-130.5-49t-142.5-94v-114.5h768v114.5z" />
<glyph unicode="&#xe083;" glyph-name="uniE083" horiz-adv-x="1088" d="M436 224q0-83.5 37-160h-473v114.5q56.5 52.5 142.5 94t130.5 49q10 1.5 15.75 17.5t6.25 31l1 15.5q-2.5 2.5-7 7.5t-16.75 20.75-22 32.25-19.75 41.5-14 49q-18.5 0-31.25 24t-11.5 54.25 19.25 45.75q0 1.5-2 21t-2.75 35.5 1.5 42.75 8.25 47.75 20 44.5 34.5 39.25 54.25 26.25 77.25 10.5 77.25-10.5 54.25-26.25 34.5-39.25 20-44.5 8.25-47.75 1.5-42.75-2.75-35.5-2-21q18-15.5 19.25-45.75t-11.5-54.25-31.25-24q-6.5-36.5-23.5-71-32-36-52.5-76l-3.5-4q0.5-1 0.5-3-36.5-76-36.5-158.5zM800 512q-58.5 0-111.75-22.75t-92-61.5-61.5-92-22.75-111.75 22.75-111.75 61.5-92 92-61.5 111.75-22.75 111.75 22.75 92 61.5 61.5 92 22.75 111.75-22.75 111.75-61.5 92-92 61.5-111.75 22.75zM960 192h-320v64h320v-64z" />
<glyph unicode="&#xe084;" glyph-name="uniE084" d="M640 384h384v-128h-384v128zM768 114.5q-56.5 52.5-142.5 94t-130.5 49q-10 1.5-15.75 17.5t-6.25 31l-1 15.5q2.5 2.5 7 7.5t16.75 20.75 22 32.25 19.75 41.5 14 49q18.5 0 31.25 24t11.5 54.25-19.25 45.75q0 1.5 2 21t2.75 35.5-1.5 42.75-8.25 47.75-20 44.5-34.5 39.25-54.25 26.25-77.25 10.5-77.25-10.5-54.25-26.25-34.5-39.25-20-44.5-8.25-47.75-1.5-42.75 2.75-35.5 2-21q-18-15.5-19.25-45.75t11.5-54.25 31.25-24q4-24 13.5-48.5t20.5-42.25 21.5-31.75 17-21l7-7.5q0-7-0.75-17t-6.5-27.75-15.75-19.25q-44.5-7.5-130.5-49t-142.5-94v-114.5h768v114.5z" />
<glyph unicode="&#xe085;" glyph-name="uniE085" horiz-adv-x="1088" d="M800 512q-58.5 0-111.75-22.75t-92-61.5-61.5-92-22.75-111.75 22.75-111.75 61.5-92 92-61.5 111.75-22.75 111.75 22.75 92 61.5 61.5 92 22.75 111.75-22.75 111.75-61.5 92-92 61.5-111.75 22.75zM960 330.5l-106.5-106.5 106.5-106.5v-53.5h-53.5l-106.5 106.5-106.5-106.5h-53.5v53.5l106.5 106.5-106.5 106.5v53.5h53.5l106.5-106.5 106.5 106.5h53.5v-53.5zM436 224q0-83.5 37-160h-473v114.5q56.5 52.5 142.5 94t130.5 49q10 1.5 15.75 17.5t6.25 31l1 15.5q-2.5 2.5-7 7.5t-16.75 20.75-22 32.25-19.75 41.5-14 49q-18.5 0-31.25 24t-11.5 54.25 19.25 45.75q0 1.5-2 21t-2.75 35.5 1.5 42.75 8.25 47.75 20 44.5 34.5 39.25 54.25 26.25 77.25 10.5 77.25-10.5 54.25-26.25 34.5-39.25 20-44.5 8.25-47.75 1.5-42.75-2.75-35.5-2-21q18-15.5 19.25-45.75t-11.5-54.25-31.25-24q-6.5-36.5-23.5-71-32-36-52.5-76l-3.5-4q0.5-1 0.5-3-36.5-76-36.5-158.5z" />
<glyph unicode="&#xe086;" glyph-name="uniE086" horiz-adv-x="1088" d="M436 224q0-83.5 37-160h-473v114.5q56.5 52.5 142.5 94t130.5 49q10 1.5 15.75 17.5t6.25 31l1 15.5q-2.5 2.5-7 7.5t-16.75 20.75-22 32.25-19.75 41.5-14 49q-18.5 0-31.25 24t-11.5 54.25 19.25 45.75q0 1.5-2 21t-2.75 35.5 1.5 42.75 8.25 47.75 20 44.5 34.5 39.25 54.25 26.25 77.25 10.5 77.25-10.5 54.25-26.25 34.5-39.25 20-44.5 8.25-47.75 1.5-42.75-2.75-35.5-2-21q18-15.5 19.25-45.75t-11.5-54.25-31.25-24q-6.5-36.5-23.5-71-32-36-52.5-76l-3.5-4q0.5-1 0.5-3-36.5-76-36.5-158.5zM800 512q-58.5 0-111.75-22.75t-92-61.5-61.5-92-22.75-111.75 22.75-111.75 61.5-92 92-61.5 111.75-22.75 111.75 22.75 92 61.5 61.5 92 22.75 111.75-22.75 111.75-61.5 92-92 61.5-111.75 22.75zM588 224q0 57.5 28.5 106.25t77.25 77.25 106.25 28.5q67.5 0 120.5-37.5l-295-295q-37.5 53-37.5 120.5zM800 12q-67.5 0-120.5 37.5l295 295q37.5-53 37.5-120.5 0-57.5-28.5-106.25t-77.25-77.25-106.25-28.5z" />
<glyph unicode="&#xe087;" glyph-name="uniE087" d="M306 376q-1.5-8.5-4.5-16h99.5q-2 6.5-3.5 16h-91.5zM19 184q-8-12-9.5-16h390q23 11 34 16h-414.5zM82.5 248q-7-5-20-16h405.5q-1.5 3-4.5 8.5t-4 7.5h-377zM276.5 344q-20-4.5-48-16h185q-6 12.5-7.5 16h-129.5zM130.5 280q-8.5-5-25.5-16h347q-2 5-6 16h-315.5zM3.5 152q-2.5-8.5-3-16h341.5l2 1q3.5 2 7.75 4.5t9.5 5.75 8.25 4.75h-366zM30.5 200h442.5q4.5 1.5 12.5 4.5-2.5 3.5-7.5 11.5h-433q-8-8-14.5-16zM248.5 808h271q-7.5 9-15 16h-241q-7.5-7-15-16zM217 712h309q16 7 24.5 9.5 0 2.5-1 6.5h-331q-1-11-1.5-16zM159 296h279.5q-8 6.5-15 16h-232q-10.5-5-32.5-16zM267.5 456h140.5l2.5 5q-0.5 2-0.75 5.5t-0.25 5.5h-150q5-11 8-16zM224.5 536q8-6.5 16-6.5 0-1.5 0.75-4.75t1.25-4.75h166q0.5 5 1.5 16h-185.5zM217.5 664q1-10 1.5-16h229.5q8 11 12.5 16h-243.5zM216.5 696v-16h260.5q6.5 6 20.5 16h-281zM225 760q-3.5-12-4-16h326q-0.5 4-4 16h-318zM238 792q-4.5-7-7.5-16h307q-3 9-7.5 16h-292zM396 408h-94l6.5-6.5q0-4-0.5-9.5h88q-0.5 8 0 16zM326.5 856q-23-5.5-41-16h197q-18 10.5-41 16h-115zM277.5 440q5.5-8.5 11.5-16h109q2 11 3.5 16h-124zM408.5 504h-162q1-3 6-16h156v16zM207 568q2.5-9 6-16h199q0.5 2.5 1.5 8t1.5 8h-208zM217 632q-6.5-7.5-9.5-16h223q3.5 8 8 16h-221.5zM204 600q-1-7.5 0-16h214.5q1 3.5 5.5 16h-220zM735 154.5q-8.5 1.5-13.25 15.25t-5.75 26.75l-0.5 13q2.5 2 6.25 6.25t14 17.5 18.75 27.5 17 35.25 12 41.5q15.5 0 26.75 20.5t10 46.25-16.75 38.75q0 1 1.75 17.75t2.5 30.25-1.25 36.25-7 40.5-17 37.75-29.75 33.25-46.75 22.25-66 9-66-9-46.75-22.25-29.75-33.25-17-37.75-7-40.5-1.25-36.25 2.5-30.25 1.75-17.75q-15.5-13-16.75-38.75t10-46.25 26.75-20.5q5.5-32.5 22.5-64.5t31-48l14.5-15.5q0-6-0.75-14.75t-5.5-23.75-13.25-16.5q-25.5-4-71.25-23.25t-95.5-48-86-69-36.25-78.25h768q0 38-36.25 78.25t-86 69-95.5 48-71.25 23.25z" />
</font>
</defs>
</svg>
